M48
;Layer_Color=9474304
;FILE_FORMAT=2:4
INCH,LZ
;TYPE=PLATED
T1F00S00C0.0118
T2F00S00C0.0197
T3F00S00C0.0315
T4F00S00C0.0354
T5F00S00C0.0394
T6F00S00C0.0512
T7F00S00C0.1181
%
T01
X0495Y02629
X0505Y02654
X0515
X0525
X0535
X0545
X0555
X0565
X0575
X0585
X0595Y02629
Y02729
Y02854
X059
Y02954
X0595
Y02904
Y03004
Y03054
Y03104
X05825Y03039
X058Y02954
Y02854
X057
X05625Y02879
X05575
X05525
X0545
X054Y02954
Y03079
X05475
X05525
X05575
X05625
X057Y03054
Y02954
X05275
X053Y03079
X0515
X05
X05075Y02954
X04975Y02854
X04775
X04875Y02954
X05175Y02854
X04675Y03024
X0455Y02629
X0415
X0375
X0335
X03225Y03004
X032Y03104
X0375Y03054
X0305
X029Y03004
Y03204
Y03404
Y03604
Y03804
Y04004
Y04254
Y04504
X0305Y03504
X03275Y03479
Y03254
X0355Y03204
X036Y03404
X03775Y03499
X0387
X0385Y03554
X0387Y03634
X03775Y03629
X03495Y03669
Y03579
X0365Y03954
X036Y04154
X03875
X0385Y04304
X041
X043
X0435Y04604
X0415Y04554
X04325Y03954
X0454Y04079
X04625Y04019
X04675Y04304
X04575Y03654
X0435Y03479
X04075Y03504
X042Y03704
X039Y03879
X0385Y03254
X03225Y03954
X03175Y04154
Y04504
X0475Y04604
X0485Y04394
X051Y04454
X05175
X0525
X053Y04404
Y04304
Y04204
X05225Y04254
X05175
X051
Y04054
X05175
X05225
X053Y04079
X054Y04154
X05475Y04229
X05425Y04304
Y04404
X0545Y04504
X0555
Y04404
Y04304
X05675
Y04404
X0575Y04354
Y04254
Y04154
X0585
Y04254
Y04354
Y04454
X0575
X0595
Y04354
Y04254
Y03904
Y03854
Y03804
Y03754
Y03704
Y03654
Y03604
Y03554
Y03504
Y03454
X0585
X0575
X0565
Y03554
Y03654
Y03754
X0575
Y03854
X0585
Y03954
Y03754
Y03654
X0575
Y03554
X0585
X05825Y03304
X05785
X0579Y03264
X05715Y03259
X05725Y03304
X0568
X057Y03204
Y03154
X05775
X059
X0595
Y03204
Y03254
X05625Y03229
X05575
X05525
X05475
X0542Y03254
Y03289
X0535Y03304
X053
Y03204
X054
X0515
X05085Y03239
X0505
X05Y03229
X0505Y03304
X05085
X05125Y03329
X052Y03304
X05101Y03405
X051Y03454
X05095Y03514
X0508Y03624
X05045
X05002Y03637
X04998Y03589
X0493
X04852Y03537
X04802Y03432
X04768Y03388
X04761Y0361
X04745Y03709
X0472Y03684
X04825Y03904
X0508Y03906
X0507Y03854
X05041Y03804
X05033Y03774
X052Y03779
Y03679
Y03554
X0535
Y03679
Y03779
X055
Y03679
Y03554
Y03454
X053
X04979Y0335
X05215Y03944
X05375Y03929
X055
X0565
X057Y04079
X0565Y04154
X0555Y04079
Y04679
X0565
X0575
X0585
X0595
Y04604
X0545Y04679
X0535
X0525
X0515
X0505
X0495Y04704
X0445
X0395
X0345
X029
T02
X0375Y03754
X04966Y03737
X05931Y04135
T03
X034566Y029111
X03555
X036534
Y03045
X03555
X034566
T04
X05Y02679
Y02779
X051
Y02679
X052
Y02779
X053
Y02679
X054
Y02779
X055
Y02679
X056
Y02779
X057
Y02679
X058
Y02779
X059
Y02679
X05875Y03079
X05775
X030749Y033072
Y037508
X034Y03729
Y03629
Y03529
Y03429
Y03329
X03985Y04295
Y04395
X04175Y04204
X04275
X04375
X04475
X04575
X04675
X04775
X05Y04554
Y04654
X051
Y04554
X052
Y04654
X053
Y04554
X054
Y04654
X055
Y04554
X056
Y04654
X057
Y04554
X058
Y04654
X059
Y04554
T05
X04025Y02839
X042218
X04375
X045718
X045803Y03215
X043834
X042253
X040284
X04225Y04429
X04325
X04425
X04525
X04625
X04725
X0485Y03374
Y031772
T06
X029726Y04265
X0376
T07
X06175Y02754
X03
X038Y04579
X06175
M30
