G04 Layer_Color=65535*
%FSTAX24Y24*%
%MOIN*%
G70*
G01*
G75*
%ADD22C,0.0100*%
%ADD23C,0.0060*%
%ADD24C,0.0080*%
%ADD39C,0.0120*%
%ADD40C,0.0079*%
%ADD41R,0.0069X0.0067*%
%ADD42R,0.0067X0.0069*%
D22*
X035Y02784D02*
X036D01*
X03575Y02804D02*
X036Y02784D01*
X03575Y02764D02*
X036Y02784D01*
X035D02*
X03525Y02804D01*
X035Y02784D02*
X03525Y02764D01*
X043418Y02684D02*
Y02644D01*
X043618D01*
X043685Y026507D01*
Y026573D01*
X043618Y02664D01*
X043418D01*
X043618D01*
X043685Y026707D01*
Y026773D01*
X043618Y02684D01*
X043418D01*
X043818D02*
Y026507D01*
X043885Y02644D01*
X044018D01*
X044085Y026507D01*
Y02684D01*
X044218D02*
X044485D01*
X044352D01*
Y02644D01*
X044618Y02684D02*
X044885D01*
X044751D01*
Y02644D01*
X045218Y02684D02*
X045085D01*
X045018Y026773D01*
Y026507D01*
X045085Y02644D01*
X045218D01*
X045285Y026507D01*
Y026773D01*
X045218Y02684D01*
X045418Y02644D02*
Y02684D01*
X045684Y02644D01*
Y02684D01*
X046018Y02644D02*
Y02684D01*
X045818Y02664D01*
X046084D01*
X039918Y02684D02*
Y02644D01*
X040118D01*
X040185Y026507D01*
Y026573D01*
X040118Y02664D01*
X039918D01*
X040118D01*
X040185Y026707D01*
Y026773D01*
X040118Y02684D01*
X039918D01*
X040318D02*
Y026507D01*
X040385Y02644D01*
X040518D01*
X040585Y026507D01*
Y02684D01*
X040718D02*
X040985D01*
X040852D01*
Y02644D01*
X041118Y02684D02*
X041385D01*
X041251D01*
Y02644D01*
X041718Y02684D02*
X041585D01*
X041518Y026773D01*
Y026507D01*
X041585Y02644D01*
X041718D01*
X041785Y026507D01*
Y026773D01*
X041718Y02684D01*
X041918Y02644D02*
Y02684D01*
X042184Y02644D01*
Y02684D01*
X042318Y026773D02*
X042384Y02684D01*
X042518D01*
X042584Y026773D01*
Y026707D01*
X042518Y02664D01*
X042451D01*
X042518D01*
X042584Y026573D01*
Y026507D01*
X042518Y02644D01*
X042384D01*
X042318Y026507D01*
X043538Y0306D02*
Y0302D01*
X043738D01*
X043805Y030267D01*
Y030333D01*
X043738Y0304D01*
X043538D01*
X043738D01*
X043805Y030467D01*
Y030533D01*
X043738Y0306D01*
X043538D01*
X043938D02*
Y030267D01*
X044005Y0302D01*
X044138D01*
X044205Y030267D01*
Y0306D01*
X044338D02*
X044605D01*
X044472D01*
Y0302D01*
X044738Y0306D02*
X045005D01*
X044871D01*
Y0302D01*
X045338Y0306D02*
X045205D01*
X045138Y030533D01*
Y030267D01*
X045205Y0302D01*
X045338D01*
X045405Y030267D01*
Y030533D01*
X045338Y0306D01*
X045538Y0302D02*
Y0306D01*
X045804Y0302D01*
Y0306D01*
X046204Y0302D02*
X045938D01*
X046204Y030467D01*
Y030533D01*
X046138Y0306D01*
X046004D01*
X045938Y030533D01*
X039989Y0306D02*
Y0302D01*
X040188D01*
X040255Y030267D01*
Y030333D01*
X040188Y0304D01*
X039989D01*
X040188D01*
X040255Y030467D01*
Y030533D01*
X040188Y0306D01*
X039989D01*
X040388D02*
Y030267D01*
X040455Y0302D01*
X040588D01*
X040655Y030267D01*
Y0306D01*
X040788D02*
X041055D01*
X040922D01*
Y0302D01*
X041188Y0306D02*
X041455D01*
X041321D01*
Y0302D01*
X041788Y0306D02*
X041655D01*
X041588Y030533D01*
Y030267D01*
X041655Y0302D01*
X041788D01*
X041855Y030267D01*
Y030533D01*
X041788Y0306D01*
X041988Y0302D02*
Y0306D01*
X042254Y0302D01*
Y0306D01*
X042388Y0302D02*
X042521D01*
X042454D01*
Y0306D01*
X042388Y030533D01*
X0476Y03069D02*
Y03109D01*
X0478D01*
X047867Y031023D01*
Y03089D01*
X0478Y030823D01*
X0476D01*
X047733D02*
X047867Y03069D01*
X048266Y03109D02*
X048D01*
Y03069D01*
X048266D01*
X048Y03089D02*
X048133D01*
X048666Y031023D02*
X0486Y03109D01*
X048466D01*
X0484Y031023D01*
Y030957D01*
X048466Y03089D01*
X0486D01*
X048666Y030823D01*
Y030757D01*
X0486Y03069D01*
X048466D01*
X0484Y030757D01*
X049066Y03109D02*
X0488D01*
Y03069D01*
X049066D01*
X0488Y03089D02*
X048933D01*
X049199Y03109D02*
X049466D01*
X049333D01*
Y03069D01*
X04375Y0365D02*
Y0361D01*
X044017D01*
X044416Y0365D02*
X04415D01*
Y0361D01*
X044416D01*
X04415Y0363D02*
X044283D01*
X04455Y0365D02*
Y0361D01*
X04475D01*
X044816Y036167D01*
Y036433D01*
X04475Y0365D01*
X04455D01*
X04515Y0361D02*
Y0365D01*
X04495Y0363D01*
X045216D01*
X04025Y0365D02*
Y0361D01*
X040517D01*
X040916Y0365D02*
X04065D01*
Y0361D01*
X040916D01*
X04065Y0363D02*
X040783D01*
X04105Y0365D02*
Y0361D01*
X04125D01*
X041316Y036167D01*
Y036433D01*
X04125Y0365D01*
X04105D01*
X04145Y036433D02*
X041516Y0365D01*
X04165D01*
X041716Y036433D01*
Y036367D01*
X04165Y0363D01*
X041583D01*
X04165D01*
X041716Y036233D01*
Y036167D01*
X04165Y0361D01*
X041516D01*
X04145Y036167D01*
X04375Y03874D02*
Y03834D01*
X044017D01*
X044416Y03874D02*
X04415D01*
Y03834D01*
X044416D01*
X04415Y03854D02*
X044283D01*
X04455Y03874D02*
Y03834D01*
X04475D01*
X044816Y038407D01*
Y038673D01*
X04475Y03874D01*
X04455D01*
X045216Y03834D02*
X04495D01*
X045216Y038607D01*
Y038673D01*
X04515Y03874D01*
X045016D01*
X04495Y038673D01*
X0403Y03874D02*
Y03834D01*
X040567D01*
X040966Y03874D02*
X0407D01*
Y03834D01*
X040966D01*
X0407Y03854D02*
X040833D01*
X0411Y03874D02*
Y03834D01*
X0413D01*
X041366Y038407D01*
Y038673D01*
X0413Y03874D01*
X0411D01*
X0415Y03834D02*
X041633D01*
X041566D01*
Y03874D01*
X0415Y038673D01*
X0364Y02804D02*
Y02769D01*
X036633D01*
X03675Y02804D02*
Y02769D01*
X036925D01*
X036983Y027748D01*
Y027982D01*
X036925Y02804D01*
X03675D01*
X037275D02*
X037158D01*
X0371Y027982D01*
Y027748D01*
X037158Y02769D01*
X037275D01*
X037333Y027748D01*
Y027982D01*
X037275Y02804D01*
X03365D02*
Y02769D01*
X033825D01*
X033883Y027748D01*
Y027807D01*
X033825Y027865D01*
X03365D01*
X033825D01*
X033883Y027923D01*
Y027982D01*
X033825Y02804D01*
X03365D01*
X034Y02769D02*
Y027923D01*
X034117Y02804D01*
X034233Y027923D01*
Y02769D01*
Y027865D01*
X034D01*
X03435Y02804D02*
X034583D01*
X034466D01*
Y02769D01*
X04745Y04294D02*
X04705D01*
Y04314D01*
X047117Y043207D01*
X04725D01*
X047317Y04314D01*
Y04294D01*
Y043073D02*
X04745Y043207D01*
X04705Y04334D02*
X04745Y043606D01*
X04705D02*
X04745Y04334D01*
X046Y04294D02*
Y043207D01*
Y043073D01*
X0464D01*
X046Y04334D02*
X0464Y043606D01*
X046D02*
X0464Y04334D01*
X045117Y043357D02*
X04505Y04329D01*
Y043157D01*
X045117Y04309D01*
X045383D01*
X04545Y043157D01*
Y04329D01*
X045383Y043357D01*
X04525D01*
Y043223D01*
X042575Y040456D02*
X042508Y04039D01*
Y040256D01*
X042575Y04019D01*
X042842D01*
X042908Y040256D01*
Y04039D01*
X042842Y040456D01*
X042708D01*
Y040323D01*
X042908Y04059D02*
X042508D01*
X042908Y040856D01*
X042508D01*
Y040989D02*
X042908D01*
Y041189D01*
X042842Y041256D01*
X042575D01*
X042508Y041189D01*
Y040989D01*
X0456Y039723D02*
X045533Y039657D01*
Y039523D01*
X0456Y039457D01*
X045667D01*
X045733Y039523D01*
Y039657D01*
X0458Y039723D01*
X045867D01*
X045933Y039657D01*
Y039523D01*
X045867Y039457D01*
X045533Y039857D02*
X045933D01*
X0458Y03999D01*
X045933Y040123D01*
X045533D01*
Y040256D02*
X045933D01*
Y040456D01*
X045867Y040523D01*
X0456D01*
X045533Y040456D01*
Y040256D01*
Y040656D02*
Y04079D01*
Y040723D01*
X045933D01*
Y040656D01*
Y04079D01*
X045533Y041189D02*
Y041056D01*
X0456Y040989D01*
X045867D01*
X045933Y041056D01*
Y041189D01*
X045867Y041256D01*
X0456D01*
X045533Y041189D01*
X046608Y039657D02*
X046542Y03959D01*
Y039457D01*
X046608Y03939D01*
X046675D01*
X046742Y039457D01*
Y03959D01*
X046808Y039657D01*
X046875D01*
X046942Y03959D01*
Y039457D01*
X046875Y03939D01*
X046542Y03979D02*
X046942D01*
X046808Y039923D01*
X046942Y040056D01*
X046542D01*
X046608Y040456D02*
X046542Y04039D01*
Y040256D01*
X046608Y04019D01*
X046875D01*
X046942Y040256D01*
Y04039D01*
X046875Y040456D01*
X046542Y04059D02*
X046942D01*
Y040856D01*
X046542Y040989D02*
X046942D01*
X046808D01*
X046542Y041256D01*
X046742Y041056D01*
X046942Y041256D01*
X041567Y039457D02*
X0415Y039523D01*
Y039657D01*
X041567Y039723D01*
X041633D01*
X0417Y039657D01*
Y03959D01*
Y039657D01*
X041767Y039723D01*
X041833D01*
X0419Y039657D01*
Y039523D01*
X041833Y039457D01*
X0415Y039857D02*
X041767D01*
X0419Y03999D01*
X041767Y040123D01*
X0415D01*
X041567Y040256D02*
X0415Y040323D01*
Y040456D01*
X041567Y040523D01*
X041633D01*
X0417Y040456D01*
Y04039D01*
Y040456D01*
X041767Y040523D01*
X041833D01*
X0419Y040456D01*
Y040323D01*
X041833Y040256D01*
X0415Y040656D02*
Y04079D01*
Y040723D01*
X0419D01*
Y040656D01*
Y04079D01*
Y040989D02*
X0415D01*
X0419Y041256D01*
X0415D01*
X043517Y039923D02*
X043783D01*
X043917Y040056D01*
X043783Y04019D01*
X043517D01*
X04365Y040323D02*
X043917D01*
X043783D01*
X043717Y04039D01*
X04365Y040456D01*
Y040523D01*
X043917Y040923D02*
Y04079D01*
X04385Y040723D01*
X043717D01*
X04365Y04079D01*
Y040923D01*
X043717Y040989D01*
X043783D01*
Y040723D01*
X043917Y041189D02*
X043583D01*
X043717D01*
Y041123D01*
Y041256D01*
Y041189D01*
X043583D01*
X043517Y041256D01*
X044925Y040056D02*
X044525D01*
X044925Y040323D01*
X044525D01*
X044925Y040456D02*
X044858D01*
Y040523D01*
X044925D01*
Y040456D01*
X044592Y041056D02*
X044525Y040989D01*
Y040856D01*
X044592Y04079D01*
X044858D01*
X044925Y040856D01*
Y040989D01*
X044858Y041056D01*
X044925Y041189D02*
X044858D01*
Y041256D01*
X044925D01*
Y041189D01*
X04795Y040056D02*
X04755D01*
X04795Y040323D01*
X04755D01*
X04795Y040456D02*
X047883D01*
Y040523D01*
X04795D01*
Y040456D01*
X047617Y041056D02*
X04755Y040989D01*
Y040856D01*
X047617Y04079D01*
X047883D01*
X04795Y040856D01*
Y040989D01*
X047883Y041056D01*
X04795Y041189D02*
X047883D01*
Y041256D01*
X04795D01*
Y041189D01*
X059133Y044373D02*
X0592Y04444D01*
Y044573D01*
X059133Y04464D01*
X058867D01*
X0588Y044573D01*
Y04444D01*
X058867Y044373D01*
X059D01*
Y044507D01*
X0592Y04384D02*
X058933D01*
X0588Y043707D01*
X058933Y043574D01*
X0592D01*
X0578Y04464D02*
X0582D01*
Y04444D01*
X058133Y044373D01*
X058D01*
X057933Y04444D01*
Y04464D01*
X0578Y04424D02*
Y044107D01*
Y044173D01*
X0582D01*
X058133Y04424D01*
X0578Y043907D02*
X057867D01*
Y04384D01*
X0578D01*
Y043907D01*
X058133Y043574D02*
X0582Y043507D01*
Y043374D01*
X058133Y043307D01*
X057867D01*
X0578Y043374D01*
Y043507D01*
X057867Y043574D01*
X058133D01*
X057867Y043174D02*
X0578Y043107D01*
Y042974D01*
X057867Y042907D01*
X058133D01*
X0582Y042974D01*
Y043107D01*
X058133Y043174D01*
X058067D01*
X058Y043107D01*
Y042907D01*
X0568Y04464D02*
X0572D01*
Y04444D01*
X057133Y044373D01*
X057D01*
X056933Y04444D01*
Y04464D01*
X0568Y04424D02*
Y044107D01*
Y044173D01*
X0572D01*
X057133Y04424D01*
X0568Y043907D02*
X056867D01*
Y04384D01*
X0568D01*
Y043907D01*
X057133Y043574D02*
X0572Y043507D01*
Y043374D01*
X057133Y043307D01*
X056867D01*
X0568Y043374D01*
Y043507D01*
X056867Y043574D01*
X057133D01*
Y043174D02*
X0572Y043107D01*
Y042974D01*
X057133Y042907D01*
X057067D01*
X057Y042974D01*
X056933Y042907D01*
X056867D01*
X0568Y042974D01*
Y043107D01*
X056867Y043174D01*
X056933D01*
X057Y043107D01*
X057067Y043174D01*
X057133D01*
X057Y043107D02*
Y042974D01*
X0558Y04464D02*
X0562D01*
Y04444D01*
X056133Y044373D01*
X056D01*
X055933Y04444D01*
Y04464D01*
X056133Y04424D02*
X0562Y044173D01*
Y04404D01*
X056133Y043974D01*
X055867D01*
X0558Y04404D01*
Y044173D01*
X055867Y04424D01*
X056133D01*
X0558Y04384D02*
X055867D01*
Y043774D01*
X0558D01*
Y04384D01*
X056133Y043507D02*
X0562Y04344D01*
Y043307D01*
X056133Y04324D01*
X055867D01*
X0558Y043307D01*
Y04344D01*
X055867Y043507D01*
X056133D01*
X0562Y042841D02*
Y043107D01*
X056D01*
X056067Y042974D01*
Y042907D01*
X056Y042841D01*
X055867D01*
X0558Y042907D01*
Y043041D01*
X055867Y043107D01*
X0552Y04464D02*
X054933D01*
X0548Y044507D01*
X054933Y044373D01*
X0552D01*
X055133Y043974D02*
X0552Y04404D01*
Y044173D01*
X055133Y04424D01*
X054867D01*
X0548Y044173D01*
Y04404D01*
X054867Y043974D01*
X055133Y043574D02*
X0552Y04364D01*
Y043774D01*
X055133Y04384D01*
X054867D01*
X0548Y043774D01*
Y04364D01*
X054867Y043574D01*
X055133Y042774D02*
X0552Y042841D01*
Y042974D01*
X055133Y043041D01*
X054867D01*
X0548Y042974D01*
Y042841D01*
X054867Y042774D01*
X055D01*
Y042907D01*
X0548Y042641D02*
X0552D01*
X0548Y042374D01*
X0552D01*
Y042241D02*
X0548D01*
Y042041D01*
X054867Y041974D01*
X055133D01*
X0552Y042041D01*
Y042241D01*
X0538Y04464D02*
X0542D01*
Y04444D01*
X054133Y044373D01*
X054D01*
X053933Y04444D01*
Y04464D01*
X054133Y04424D02*
X0542Y044173D01*
Y04404D01*
X054133Y043974D01*
X053867D01*
X0538Y04404D01*
Y044173D01*
X053867Y04424D01*
X054133D01*
X0538Y04384D02*
X053867D01*
Y043774D01*
X0538D01*
Y04384D01*
Y04324D02*
Y043507D01*
X054067Y04324D01*
X054133D01*
X0542Y043307D01*
Y04344D01*
X054133Y043507D01*
X0542Y043107D02*
Y042841D01*
X054133D01*
X053867Y043107D01*
X0538D01*
X0528Y04464D02*
X0532D01*
Y04444D01*
X053133Y044373D01*
X053D01*
X052933Y04444D01*
Y04464D01*
X053133Y04424D02*
X0532Y044173D01*
Y04404D01*
X053133Y043974D01*
X052867D01*
X0528Y04404D01*
Y044173D01*
X052867Y04424D01*
X053133D01*
X0528Y04384D02*
X052867D01*
Y043774D01*
X0528D01*
Y04384D01*
Y04324D02*
Y043507D01*
X053067Y04324D01*
X053133D01*
X0532Y043307D01*
Y04344D01*
X053133Y043507D01*
X0532Y042841D02*
X053133Y042974D01*
X053Y043107D01*
X052867D01*
X0528Y043041D01*
Y042907D01*
X052867Y042841D01*
X052933D01*
X053Y042907D01*
Y043107D01*
X052133Y044373D02*
X0522Y04444D01*
Y044573D01*
X052133Y04464D01*
X051867D01*
X0518Y044573D01*
Y04444D01*
X051867Y044373D01*
X052D01*
Y044507D01*
X0518Y04424D02*
X0522D01*
X0518Y043974D01*
X0522D01*
Y04384D02*
X0518D01*
Y04364D01*
X051867Y043574D01*
X052133D01*
X0522Y04364D01*
Y04384D01*
Y043041D02*
X051933D01*
X0518Y042907D01*
X051933Y042774D01*
X0522D01*
X052133Y042374D02*
X0522Y042441D01*
Y042574D01*
X052133Y042641D01*
X051867D01*
X0518Y042574D01*
Y042441D01*
X051867Y042374D01*
X052133Y041974D02*
X0522Y042041D01*
Y042174D01*
X052133Y042241D01*
X051867D01*
X0518Y042174D01*
Y042041D01*
X051867Y041974D01*
X0502Y04464D02*
X049933D01*
X0498Y044507D01*
X049933Y044373D01*
X0502D01*
X050133Y043974D02*
X0502Y04404D01*
Y044173D01*
X050133Y04424D01*
X049867D01*
X0498Y044173D01*
Y04404D01*
X049867Y043974D01*
X050133Y043574D02*
X0502Y04364D01*
Y043774D01*
X050133Y04384D01*
X049867D01*
X0498Y043774D01*
Y04364D01*
X049867Y043574D01*
X050133Y042774D02*
X0502Y042841D01*
Y042974D01*
X050133Y043041D01*
X049867D01*
X0498Y042974D01*
Y042841D01*
X049867Y042774D01*
X05D01*
Y042907D01*
X0498Y042641D02*
X0502D01*
X0498Y042374D01*
X0502D01*
Y042241D02*
X0498D01*
Y042041D01*
X049867Y041974D01*
X050133D01*
X0502Y042041D01*
Y042241D01*
X0508Y04464D02*
X0512D01*
Y04444D01*
X051133Y044373D01*
X051D01*
X050933Y04444D01*
Y04464D01*
X051133Y04424D02*
X0512Y044173D01*
Y04404D01*
X051133Y043974D01*
X050867D01*
X0508Y04404D01*
Y044173D01*
X050867Y04424D01*
X051133D01*
X0508Y04384D02*
X050867D01*
Y043774D01*
X0508D01*
Y04384D01*
X051133Y043507D02*
X0512Y04344D01*
Y043307D01*
X051133Y04324D01*
X050867D01*
X0508Y043307D01*
Y04344D01*
X050867Y043507D01*
X051133D01*
X0508Y042907D02*
X0512D01*
X051Y043107D01*
Y042841D01*
X059133Y029374D02*
X0592Y029441D01*
Y029574D01*
X059133Y029641D01*
X058867D01*
X0588Y029574D01*
Y029441D01*
X058867Y029374D01*
X059D01*
Y029507D01*
X0592Y028841D02*
X058933D01*
X0588Y028707D01*
X058933Y028574D01*
X0592D01*
X0582Y029641D02*
X057933D01*
X0578Y029507D01*
X057933Y029374D01*
X0582D01*
X058133Y028574D02*
X0582Y028641D01*
Y028774D01*
X058133Y028841D01*
X057867D01*
X0578Y028774D01*
Y028641D01*
X057867Y028574D01*
X058D01*
Y028707D01*
X057133Y029974D02*
X0572Y029907D01*
Y029774D01*
X057133Y029707D01*
X056867D01*
X0568Y029774D01*
Y029907D01*
X056867Y029974D01*
X057133D01*
X0568Y029574D02*
X056867D01*
Y029507D01*
X0568D01*
Y029574D01*
Y028974D02*
Y029241D01*
X057067Y028974D01*
X057133D01*
X0572Y029041D01*
Y029174D01*
X057133Y029241D01*
Y028841D02*
X0572Y028774D01*
Y028641D01*
X057133Y028574D01*
X057067D01*
X057Y028641D01*
Y028707D01*
Y028641D01*
X056933Y028574D01*
X056867D01*
X0568Y028641D01*
Y028774D01*
X056867Y028841D01*
X0558Y030374D02*
X0562D01*
Y030174D01*
X056133Y030107D01*
X056D01*
X055933Y030174D01*
Y030374D01*
X056133Y029974D02*
X0562Y029907D01*
Y029774D01*
X056133Y029707D01*
X055867D01*
X0558Y029774D01*
Y029907D01*
X055867Y029974D01*
X056133D01*
X0558Y029574D02*
X055867D01*
Y029507D01*
X0558D01*
Y029574D01*
Y028974D02*
Y029241D01*
X056067Y028974D01*
X056133D01*
X0562Y029041D01*
Y029174D01*
X056133Y029241D01*
X0558Y028574D02*
Y028841D01*
X056067Y028574D01*
X056133D01*
X0562Y028641D01*
Y028774D01*
X056133Y028841D01*
X0548Y03024D02*
X0552D01*
Y03004D01*
X055133Y029974D01*
X055D01*
X054933Y03004D01*
Y03024D01*
X055133Y02984D02*
X0552Y029774D01*
Y029641D01*
X055133Y029574D01*
X054867D01*
X0548Y029641D01*
Y029774D01*
X054867Y02984D01*
X055133D01*
X0548Y029441D02*
X054867D01*
Y029374D01*
X0548D01*
Y029441D01*
Y028841D02*
Y029107D01*
X055067Y028841D01*
X055133D01*
X0552Y028907D01*
Y029041D01*
X055133Y029107D01*
X0548Y028707D02*
Y028574D01*
Y028641D01*
X0552D01*
X055133Y028707D01*
X0538Y030374D02*
X0542D01*
Y030174D01*
X054133Y030107D01*
X054D01*
X053933Y030174D01*
Y030374D01*
X054133Y029974D02*
X0542Y029907D01*
Y029774D01*
X054133Y029707D01*
X053867D01*
X0538Y029774D01*
Y029907D01*
X053867Y029974D01*
X054133D01*
X0538Y029574D02*
X053867D01*
Y029507D01*
X0538D01*
Y029574D01*
Y028974D02*
Y029241D01*
X054067Y028974D01*
X054133D01*
X0542Y029041D01*
Y029174D01*
X054133Y029241D01*
Y028841D02*
X0542Y028774D01*
Y028641D01*
X054133Y028574D01*
X053867D01*
X0538Y028641D01*
Y028774D01*
X053867Y028841D01*
X054133D01*
X0528Y030307D02*
X0532D01*
Y030107D01*
X053133Y03004D01*
X053D01*
X052933Y030107D01*
Y030307D01*
X053133Y029907D02*
X0532Y02984D01*
Y029707D01*
X053133Y029641D01*
X052867D01*
X0528Y029707D01*
Y02984D01*
X052867Y029907D01*
X053133D01*
X0528Y029507D02*
X052867D01*
Y029441D01*
X0528D01*
Y029507D01*
Y029174D02*
Y029041D01*
Y029107D01*
X0532D01*
X053133Y029174D01*
X052867Y028841D02*
X0528Y028774D01*
Y028641D01*
X052867Y028574D01*
X053133D01*
X0532Y028641D01*
Y028774D01*
X053133Y028841D01*
X053067D01*
X053Y028774D01*
Y028574D01*
X0518Y030307D02*
X0522D01*
Y030107D01*
X052133Y03004D01*
X052D01*
X051933Y030107D01*
Y030307D01*
X052133Y029907D02*
X0522Y02984D01*
Y029707D01*
X052133Y029641D01*
X051867D01*
X0518Y029707D01*
Y02984D01*
X051867Y029907D01*
X052133D01*
X0518Y029507D02*
X051867D01*
Y029441D01*
X0518D01*
Y029507D01*
Y029174D02*
Y029041D01*
Y029107D01*
X0522D01*
X052133Y029174D01*
X0522Y028841D02*
Y028574D01*
X052133D01*
X051867Y028841D01*
X0518D01*
X0512Y03124D02*
X050933D01*
X0508Y031107D01*
X050933Y030973D01*
X0512D01*
X051133Y030574D02*
X0512Y03064D01*
Y030773D01*
X051133Y03084D01*
X050867D01*
X0508Y030773D01*
Y03064D01*
X050867Y030574D01*
X051133Y030174D02*
X0512Y03024D01*
Y030374D01*
X051133Y03044D01*
X050867D01*
X0508Y030374D01*
Y03024D01*
X050867Y030174D01*
X051133Y029374D02*
X0512Y029441D01*
Y029574D01*
X051133Y029641D01*
X050867D01*
X0508Y029574D01*
Y029441D01*
X050867Y029374D01*
X051D01*
Y029507D01*
X0508Y029241D02*
X0512D01*
X0508Y028974D01*
X0512D01*
Y028841D02*
X0508D01*
Y028641D01*
X050867Y028574D01*
X051133D01*
X0512Y028641D01*
Y028841D01*
X050133Y030973D02*
X0502Y03104D01*
Y031173D01*
X050133Y03124D01*
X049867D01*
X0498Y031173D01*
Y03104D01*
X049867Y030973D01*
X05D01*
Y031107D01*
X0498Y03084D02*
X0502D01*
X0498Y030574D01*
X0502D01*
Y03044D02*
X0498D01*
Y03024D01*
X049867Y030174D01*
X050133D01*
X0502Y03024D01*
Y03044D01*
Y029641D02*
X049933D01*
X0498Y029507D01*
X049933Y029374D01*
X0502D01*
X050133Y028974D02*
X0502Y029041D01*
Y029174D01*
X050133Y029241D01*
X049867D01*
X0498Y029174D01*
Y029041D01*
X049867Y028974D01*
X050133Y028574D02*
X0502Y028641D01*
Y028774D01*
X050133Y028841D01*
X049867D01*
X0498Y028774D01*
Y028641D01*
X049867Y028574D01*
D23*
X038274Y030446D02*
X039474D01*
X038274D02*
Y031134D01*
X039474D01*
Y030446D02*
Y031134D01*
X039591Y04034D02*
X03969Y040438D01*
X039345Y040675D02*
X039936D01*
X039345Y040005D02*
X039936D01*
X039591Y04034D02*
X03969Y040242D01*
Y040438D01*
X04565Y037734D02*
X04685D01*
Y037046D02*
Y037734D01*
X04565Y037046D02*
X04685D01*
X04565D02*
Y037734D01*
Y038584D02*
X04685D01*
Y037896D02*
Y038584D01*
X04565Y037896D02*
X04685D01*
X04565D02*
Y038584D01*
X0456Y035384D02*
X0468D01*
Y034696D02*
Y035384D01*
X0456Y034696D02*
X0468D01*
X0456D02*
Y035384D01*
Y034534D02*
X0468D01*
Y033846D02*
Y034534D01*
X0456Y033846D02*
X0468D01*
X0456D02*
Y034534D01*
X036402Y035D02*
X0365Y035098D01*
X036117Y035335D02*
X036707D01*
X036117Y034665D02*
X036707D01*
X036402Y035D02*
X0365Y034902D01*
Y035098D01*
X037206Y039D02*
Y0402D01*
X037894D01*
Y039D02*
Y0402D01*
X037206Y039D02*
X037894D01*
X059644Y04084D02*
Y04204D01*
X058956Y04084D02*
X059644D01*
X058956D02*
Y04204D01*
X059644D01*
X0494Y04494D02*
X0596D01*
X0494D02*
Y04714D01*
X0596Y04494D02*
Y04714D01*
X0494D02*
X0596D01*
X0494Y02619D02*
X0596D01*
X0494D02*
Y02839D01*
X0596Y02619D02*
Y02839D01*
X0494D02*
X0596D01*
X03925Y04235D02*
Y04455D01*
X04045D01*
Y04235D02*
Y04455D01*
X03925Y04235D02*
X04045D01*
X04115Y04144D02*
X04835D01*
Y04264D01*
X04115D02*
X04835D01*
X04115Y04144D02*
Y04264D01*
X05715Y03019D02*
Y03139D01*
Y03019D02*
X05935D01*
Y03139D01*
X05715D02*
X05935D01*
X04728Y031535D02*
X047634D01*
X04728Y033976D02*
X047634D01*
X049366D02*
X04972D01*
X049366Y031535D02*
X04972D01*
X04972Y033976D02*
X04972Y031535D01*
X04728D02*
Y033976D01*
X049276Y039046D02*
X050476D01*
X049276D02*
Y039734D01*
X050476D01*
Y039046D02*
Y039734D01*
X049276Y038196D02*
X050476D01*
X049276D02*
Y038884D01*
X050476D01*
Y038196D02*
Y038884D01*
X050574Y03455D02*
Y03575D01*
X049886Y03455D02*
X050574D01*
X049886D02*
Y03575D01*
X050574D01*
X048956Y03455D02*
Y03575D01*
X049644D01*
Y03455D02*
Y03575D01*
X048956Y03455D02*
X049644D01*
X048641Y035002D02*
Y035423D01*
X047457Y035002D02*
Y035423D01*
X048385D02*
X048638D01*
X047457D02*
X047715D01*
X047756Y03624D02*
Y03744D01*
X048444D01*
Y03624D02*
Y03744D01*
X047756Y03624D02*
X048444D01*
X03805Y035334D02*
X03925D01*
Y034646D02*
Y035334D01*
X03805Y034646D02*
X03925D01*
X03805D02*
Y035334D01*
Y036684D02*
X03925D01*
Y035996D02*
Y036684D01*
X03805Y035996D02*
X03925D01*
X03805D02*
Y036684D01*
X040283Y037455D02*
X040638D01*
X04111D02*
X041445D01*
X040283Y038125D02*
X040638D01*
X04111D02*
X041445D01*
X041553Y038016D01*
Y037564D02*
Y038016D01*
X041445Y037455D02*
X041553Y037564D01*
X040283Y037455D02*
Y038125D01*
X041455Y037465D02*
Y038115D01*
X036402Y0363D02*
X0365Y036398D01*
X036117Y036635D02*
X036707D01*
X036117Y035965D02*
X036707D01*
X036402Y0363D02*
X0365Y036202D01*
Y036398D01*
X035744Y0373D02*
Y0385D01*
X035056Y0373D02*
X035744D01*
X035056D02*
Y0385D01*
X035744D01*
X037652Y03755D02*
X03775Y037648D01*
X037367Y037885D02*
X037957D01*
X037367Y037215D02*
X037957D01*
X037652Y03755D02*
X03775Y037452D01*
Y037648D01*
X035024Y032546D02*
X036224D01*
X035024D02*
Y033234D01*
X036224D01*
Y032546D02*
Y033234D01*
X034024Y031496D02*
X035224D01*
X034024D02*
Y032184D01*
X035224D01*
Y031496D02*
Y032184D01*
X0291Y030334D02*
X0303D01*
Y029646D02*
Y030334D01*
X0291Y029646D02*
X0303D01*
X0291D02*
Y030334D01*
Y031734D02*
X0303D01*
Y031046D02*
Y031734D01*
X0291Y031046D02*
X0303D01*
X0291D02*
Y031734D01*
X036928Y029092D02*
X037322D01*
X033778D02*
X034172D01*
X036928Y03047D02*
X037322D01*
X033778D02*
X034172D01*
X033778Y029092D02*
Y03047D01*
X037322Y029092D02*
Y03047D01*
X037335Y032075D02*
Y03243D01*
Y032902D02*
Y033237D01*
X036665Y032075D02*
Y03243D01*
Y032902D02*
Y033237D01*
X036774Y033345D01*
X037226D01*
X037335Y033237D01*
X036665Y032075D02*
X037335D01*
X036675Y033247D02*
X037325D01*
X038594Y032814D02*
Y034014D01*
X037906Y032814D02*
X038594D01*
X037906D02*
Y034014D01*
X038594D01*
X0385Y028296D02*
X038598Y028197D01*
X038835Y027991D02*
Y028581D01*
X038165Y027991D02*
Y028581D01*
X038402Y028197D02*
X0385Y028296D01*
X038402Y028197D02*
X038598D01*
X043783Y037455D02*
X044138D01*
X04461D02*
X044945D01*
X043783Y038125D02*
X044138D01*
X04461D02*
X044945D01*
X045053Y038016D01*
Y037564D02*
Y038016D01*
X044945Y037455D02*
X045053Y037564D01*
X043783Y037455D02*
Y038125D01*
X044955Y037465D02*
Y038115D01*
X040283Y035205D02*
X040638D01*
X04111D02*
X041445D01*
X040283Y035875D02*
X040638D01*
X04111D02*
X041445D01*
X041553Y035766D01*
Y035314D02*
Y035766D01*
X041445Y035205D02*
X041553Y035314D01*
X040283Y035205D02*
Y035875D01*
X041455Y035215D02*
Y035865D01*
X043783Y035205D02*
X044138D01*
X04461D02*
X044945D01*
X043783Y035875D02*
X044138D01*
X04461D02*
X044945D01*
X045053Y035766D01*
Y035314D02*
Y035766D01*
X044945Y035205D02*
X045053Y035314D01*
X043783Y035205D02*
Y035875D01*
X044955Y035215D02*
Y035865D01*
X043598Y033016D02*
Y03337D01*
X046039Y033016D02*
Y03337D01*
Y03093D02*
Y031284D01*
X043598Y03093D02*
Y031284D01*
Y03093D02*
X046039Y03093D01*
X043598Y03337D02*
X046039D01*
X040048Y033016D02*
Y03337D01*
X042489Y033016D02*
Y03337D01*
Y03093D02*
Y031284D01*
X040048Y03093D02*
Y031284D01*
Y03093D02*
X042489Y03093D01*
X040048Y03337D02*
X042489D01*
X040014Y029256D02*
Y02961D01*
X042455Y029256D02*
Y02961D01*
Y02717D02*
Y027524D01*
X040014Y02717D02*
Y027524D01*
Y02717D02*
X042455Y02717D01*
X040014Y02961D02*
X042455D01*
X043514Y029256D02*
Y02961D01*
X045955Y029256D02*
Y02961D01*
Y02717D02*
Y027524D01*
X043514Y02717D02*
Y027524D01*
Y02717D02*
X045955Y02717D01*
X043514Y02961D02*
X045955D01*
X057419Y031833D02*
X058187D01*
X057419D02*
Y032247D01*
X058187D01*
Y031833D02*
Y032247D01*
X058313Y031833D02*
X059081D01*
X058313D02*
Y032247D01*
X059081D01*
Y031833D02*
Y032247D01*
X049891Y036742D02*
Y037163D01*
X048707Y036742D02*
Y037163D01*
X049635D02*
X049888D01*
X048707D02*
X048965D01*
D24*
X032836Y038319D02*
G03*
X036897Y041153I-000004J004331D01*
G01*
X032836Y046981D02*
G03*
X032836Y038319I0J-004331D01*
G01*
X03689Y044147D02*
G03*
X032836Y046981I-004064J-001497D01*
G01*
X028449Y033794D02*
X028882D01*
X028449Y036786D02*
X028882D01*
Y033794D02*
Y036786D01*
X034591Y032672D02*
Y037908D01*
X028449Y036786D02*
Y037908D01*
X034591D01*
X028449Y032672D02*
X034591D01*
X028449D02*
Y033794D01*
X036891Y044146D02*
X038151D01*
X036897Y041154D02*
X038151D01*
Y044146D01*
X03343Y029801D02*
Y031179D01*
X03087D02*
X03343D01*
X03087Y029801D02*
X03343D01*
X03087D02*
Y031179D01*
X038557Y031732D02*
X038499Y03179D01*
X038382D01*
X038324Y031732D01*
Y031498D01*
X038382Y03144D01*
X038499D01*
X038557Y031498D01*
X038674Y03144D02*
X038791D01*
X038732D01*
Y03179D01*
X038674Y031732D01*
X038965Y03144D02*
X039082D01*
X039024D01*
Y03179D01*
X038965Y031732D01*
X05113Y04104D02*
Y040748D01*
X051188Y04069D01*
X051305D01*
X051363Y040748D01*
Y04104D01*
X051713Y04069D02*
X05148D01*
X051713Y040923D01*
Y040982D01*
X051655Y04104D01*
X051538D01*
X05148Y040982D01*
X0387Y04129D02*
Y04094D01*
X038875D01*
X038933Y040998D01*
Y041232D01*
X038875Y04129D01*
X0387D01*
X039283D02*
X03905D01*
Y041115D01*
X039167Y041173D01*
X039225D01*
X039283Y041115D01*
Y040998D01*
X039225Y04094D01*
X039108D01*
X03905Y040998D01*
X0503Y03349D02*
X04995D01*
Y033665D01*
X050008Y033723D01*
X050125D01*
X050183Y033665D01*
Y03349D01*
Y033607D02*
X0503Y033723D01*
X04995Y03384D02*
Y034073D01*
X050008D01*
X050242Y03384D01*
X0503D01*
X047233Y035748D02*
Y035982D01*
X047175Y03604D01*
X047058D01*
X047Y035982D01*
Y035748D01*
X047058Y03569D01*
X047175D01*
X047117Y035807D02*
X047233Y03569D01*
X047175D02*
X047233Y035748D01*
X047583Y03569D02*
X04735D01*
X047583Y035923D01*
Y035982D01*
X047525Y03604D01*
X047408D01*
X04735Y035982D01*
X050333Y037198D02*
Y037432D01*
X050275Y03749D01*
X050158D01*
X0501Y037432D01*
Y037198D01*
X050158Y03714D01*
X050275D01*
X050217Y037257D02*
X050333Y03714D01*
X050275D02*
X050333Y037198D01*
X05045Y03714D02*
X050567D01*
X050508D01*
Y03749D01*
X05045Y037432D01*
X028722Y038582D02*
X028605D01*
X028664D01*
Y03829D01*
X028605Y038232D01*
X028547D01*
X028489Y03829D01*
X028839Y038232D02*
X028955D01*
X028897D01*
Y038582D01*
X028839Y038523D01*
X050538Y033723D02*
X05048Y033665D01*
Y033548D01*
X050538Y03349D01*
X050772D01*
X05083Y033548D01*
Y033665D01*
X050772Y033723D01*
X05083Y03384D02*
Y033957D01*
Y033898D01*
X05048D01*
X050538Y03384D01*
Y034131D02*
X05048Y03419D01*
Y034306D01*
X050538Y034365D01*
X050772D01*
X05083Y034306D01*
Y03419D01*
X050772Y034131D01*
X050538D01*
X034033Y031182D02*
X033975Y03124D01*
X033858D01*
X0338Y031182D01*
Y031123D01*
X033858Y031065D01*
X033975D01*
X034033Y031007D01*
Y030948D01*
X033975Y03089D01*
X033858D01*
X0338Y030948D01*
X03415Y03124D02*
Y03089D01*
X034267Y031007D01*
X034383Y03089D01*
Y03124D01*
X0345Y03089D02*
X034616D01*
X034558D01*
Y03124D01*
X0345Y031182D01*
X03065Y02943D02*
Y029138D01*
X030708Y02908D01*
X030825D01*
X030883Y029138D01*
Y02943D01*
X031Y02908D02*
X031117D01*
X031058D01*
Y02943D01*
X031Y029372D01*
X04465Y03444D02*
Y03479D01*
X044825D01*
X044883Y034732D01*
Y034615D01*
X044825Y034557D01*
X04465D01*
X044767D02*
X044883Y03444D01*
X045D02*
X045117D01*
X045058D01*
Y03479D01*
X045Y034732D01*
X045291Y03444D02*
X045408D01*
X04535D01*
Y03479D01*
X045291Y034732D01*
X0445Y03389D02*
Y03424D01*
X044675D01*
X044733Y034182D01*
Y034065D01*
X044675Y034007D01*
X0445D01*
X044617D02*
X044733Y03389D01*
X04485D02*
X044967D01*
X044908D01*
Y03424D01*
X04485Y034182D01*
X045141D02*
X0452Y03424D01*
X045316D01*
X045375Y034182D01*
Y033948D01*
X045316Y03389D01*
X0452D01*
X045141Y033948D01*
Y034182D01*
X047Y03804D02*
Y03839D01*
X047175D01*
X047233Y038332D01*
Y038215D01*
X047175Y038157D01*
X047D01*
X047117D02*
X047233Y03804D01*
X04735Y038098D02*
X047408Y03804D01*
X047525D01*
X047583Y038098D01*
Y038332D01*
X047525Y03839D01*
X047408D01*
X04735Y038332D01*
Y038273D01*
X047408Y038215D01*
X047583D01*
X047Y03724D02*
Y03759D01*
X047175D01*
X047233Y037532D01*
Y037415D01*
X047175Y037357D01*
X047D01*
X047117D02*
X047233Y03724D01*
X04735Y037532D02*
X047408Y03759D01*
X047525D01*
X047583Y037532D01*
Y037473D01*
X047525Y037415D01*
X047583Y037357D01*
Y037298D01*
X047525Y03724D01*
X047408D01*
X04735Y037298D01*
Y037357D01*
X047408Y037415D01*
X04735Y037473D01*
Y037532D01*
X047408Y037415D02*
X047525D01*
X04785Y03764D02*
Y03799D01*
X048025D01*
X048083Y037932D01*
Y037815D01*
X048025Y037757D01*
X04785D01*
X047967D02*
X048083Y03764D01*
X048433Y03799D02*
X048317Y037932D01*
X0482Y037815D01*
Y037698D01*
X048258Y03764D01*
X048375D01*
X048433Y037698D01*
Y037757D01*
X048375Y037815D01*
X0482D01*
X038Y03229D02*
Y03264D01*
X038175D01*
X038233Y032582D01*
Y032465D01*
X038175Y032407D01*
X038D01*
X038117D02*
X038233Y03229D01*
X038583Y03264D02*
X03835D01*
Y032465D01*
X038467Y032523D01*
X038525D01*
X038583Y032465D01*
Y032348D01*
X038525Y03229D01*
X038408D01*
X03835Y032348D01*
X048452Y03849D02*
Y03884D01*
X048627D01*
X048685Y038782D01*
Y038665D01*
X048627Y038607D01*
X048452D01*
X048569D02*
X048685Y03849D01*
X048977D02*
Y03884D01*
X048802Y038665D01*
X049035D01*
X048452Y03919D02*
Y03954D01*
X048627D01*
X048685Y039482D01*
Y039365D01*
X048627Y039307D01*
X048452D01*
X048569D02*
X048685Y03919D01*
X048802Y039482D02*
X04886Y03954D01*
X048977D01*
X049035Y039482D01*
Y039423D01*
X048977Y039365D01*
X048918D01*
X048977D01*
X049035Y039307D01*
Y039248D01*
X048977Y03919D01*
X04886D01*
X048802Y039248D01*
X0389Y03418D02*
Y03453D01*
X039075D01*
X039133Y034472D01*
Y034355D01*
X039075Y034297D01*
X0389D01*
X039017D02*
X039133Y03418D01*
X039483D02*
X03925D01*
X039483Y034413D01*
Y034472D01*
X039425Y03453D01*
X039308D01*
X03925Y034472D01*
X0389Y03554D02*
Y03589D01*
X039075D01*
X039133Y035832D01*
Y035715D01*
X039075Y035657D01*
X0389D01*
X039017D02*
X039133Y03554D01*
X03925D02*
X039367D01*
X039308D01*
Y03589D01*
X03925Y035832D01*
X04025Y04154D02*
Y04189D01*
X040425D01*
X040483Y041832D01*
Y041715D01*
X040425Y041657D01*
X04025D01*
X040833Y04189D02*
X0406D01*
Y041715D01*
X040717Y041773D01*
X040775D01*
X040833Y041715D01*
Y041598D01*
X040775Y04154D01*
X040658D01*
X0406Y041598D01*
X0485Y02779D02*
Y02814D01*
X048675D01*
X048733Y028082D01*
Y027965D01*
X048675Y027907D01*
X0485D01*
X049025Y02779D02*
Y02814D01*
X04885Y027965D01*
X049083D01*
X04025Y04654D02*
Y04689D01*
X040425D01*
X040483Y046832D01*
Y046715D01*
X040425Y046657D01*
X04025D01*
X0406Y046832D02*
X040658Y04689D01*
X040775D01*
X040833Y046832D01*
Y046773D01*
X040775Y046715D01*
X040717D01*
X040775D01*
X040833Y046657D01*
Y046598D01*
X040775Y04654D01*
X040658D01*
X0406Y046598D01*
X0485Y04654D02*
Y04689D01*
X048675D01*
X048733Y046832D01*
Y046715D01*
X048675Y046657D01*
X0485D01*
X049083Y04654D02*
X04885D01*
X049083Y046773D01*
Y046832D01*
X049025Y04689D01*
X048908D01*
X04885Y046832D01*
X03925Y04479D02*
Y04514D01*
X039425D01*
X039483Y045082D01*
Y044965D01*
X039425Y044907D01*
X03925D01*
X0396Y04479D02*
X039717D01*
X039658D01*
Y04514D01*
X0396Y045082D01*
X0363Y031306D02*
Y031656D01*
X036475D01*
X036533Y031598D01*
Y031481D01*
X036475Y031423D01*
X0363D01*
X036708Y031306D02*
X036825D01*
X036883Y031364D01*
Y031481D01*
X036825Y031539D01*
X036708D01*
X03665Y031481D01*
Y031364D01*
X036708Y031306D01*
X037Y031539D02*
Y031364D01*
X037058Y031306D01*
X037116Y031364D01*
X037175Y031306D01*
X037233Y031364D01*
Y031539D01*
X037525Y031306D02*
X037408D01*
X03735Y031364D01*
Y031481D01*
X037408Y031539D01*
X037525D01*
X037583Y031481D01*
Y031423D01*
X03735D01*
X0377Y031539D02*
Y031306D01*
Y031423D01*
X037758Y031481D01*
X037816Y031539D01*
X037874D01*
X03815Y029938D02*
Y029588D01*
X038325D01*
X038383Y029646D01*
Y029879D01*
X038325Y029938D01*
X03815D01*
X038675Y029588D02*
Y029938D01*
X0385Y029763D01*
X038733D01*
X0356Y03714D02*
Y03679D01*
X035775D01*
X035833Y036848D01*
Y037082D01*
X035775Y03714D01*
X0356D01*
X03595Y037082D02*
X036008Y03714D01*
X036125D01*
X036183Y037082D01*
Y037023D01*
X036125Y036965D01*
X036067D01*
X036125D01*
X036183Y036907D01*
Y036848D01*
X036125Y03679D01*
X036008D01*
X03595Y036848D01*
X03615Y03449D02*
Y03414D01*
X036325D01*
X036383Y034198D01*
Y034432D01*
X036325Y03449D01*
X03615D01*
X036733Y03414D02*
X0365D01*
X036733Y034373D01*
Y034432D01*
X036675Y03449D01*
X036558D01*
X0365Y034432D01*
X0367Y03849D02*
Y03814D01*
X036875D01*
X036933Y038198D01*
Y038432D01*
X036875Y03849D01*
X0367D01*
X03705Y03814D02*
X037167D01*
X037108D01*
Y03849D01*
X03705Y038432D01*
X0586Y032752D02*
X058542Y03281D01*
X058425D01*
X058367Y032752D01*
Y032518D01*
X058425Y03246D01*
X058542D01*
X0586Y032518D01*
X058717D02*
X058775Y03246D01*
X058892D01*
X05895Y032518D01*
Y032752D01*
X058892Y03281D01*
X058775D01*
X058717Y032752D01*
Y032693D01*
X058775Y032635D01*
X05895D01*
X057706Y032752D02*
X057648Y03281D01*
X057531D01*
X057473Y032752D01*
Y032518D01*
X057531Y03246D01*
X057648D01*
X057706Y032518D01*
X057823Y032752D02*
X057881Y03281D01*
X057998D01*
X058056Y032752D01*
Y032693D01*
X057998Y032635D01*
X058056Y032577D01*
Y032518D01*
X057998Y03246D01*
X057881D01*
X057823Y032518D01*
Y032577D01*
X057881Y032635D01*
X057823Y032693D01*
Y032752D01*
X057881Y032635D02*
X057998D01*
X058433Y041232D02*
X058375Y04129D01*
X058258D01*
X0582Y041232D01*
Y040998D01*
X058258Y04094D01*
X058375D01*
X058433Y040998D01*
X05855Y04129D02*
X058783D01*
Y041232D01*
X05855Y040998D01*
Y04094D01*
X037493Y040806D02*
X037435Y040864D01*
X037318D01*
X03726Y040806D01*
Y040572D01*
X037318Y040514D01*
X037435D01*
X037493Y040572D01*
X037843Y040864D02*
X037727Y040806D01*
X03761Y040689D01*
Y040572D01*
X037668Y040514D01*
X037785D01*
X037843Y040572D01*
Y040631D01*
X037785Y040689D01*
X03761D01*
X035333Y033732D02*
X035275Y03379D01*
X035158D01*
X0351Y033732D01*
Y033498D01*
X035158Y03344D01*
X035275D01*
X035333Y033498D01*
X035683Y03379D02*
X03545D01*
Y033615D01*
X035567Y033673D01*
X035625D01*
X035683Y033615D01*
Y033498D01*
X035625Y03344D01*
X035508D01*
X03545Y033498D01*
X035633Y031982D02*
X035575Y03204D01*
X035458D01*
X0354Y031982D01*
Y031748D01*
X035458Y03169D01*
X035575D01*
X035633Y031748D01*
X035925Y03169D02*
Y03204D01*
X03575Y031865D01*
X035983D01*
X029433Y029382D02*
X029375Y02944D01*
X029258D01*
X0292Y029382D01*
Y029148D01*
X029258Y02909D01*
X029375D01*
X029433Y029148D01*
X02955Y029382D02*
X029608Y02944D01*
X029725D01*
X029783Y029382D01*
Y029323D01*
X029725Y029265D01*
X029667D01*
X029725D01*
X029783Y029207D01*
Y029148D01*
X029725Y02909D01*
X029608D01*
X02955Y029148D01*
X029383Y030832D02*
X029325Y03089D01*
X029208D01*
X02915Y030832D01*
Y030598D01*
X029208Y03054D01*
X029325D01*
X029383Y030598D01*
X029733Y03054D02*
X0295D01*
X029733Y030773D01*
Y030832D01*
X029675Y03089D01*
X029558D01*
X0295Y030832D01*
X035833Y038982D02*
X035775Y03904D01*
X035658D01*
X0356Y038982D01*
Y038748D01*
X035658Y03869D01*
X035775D01*
X035833Y038748D01*
X03595Y03869D02*
X036067D01*
X036008D01*
Y03904D01*
X03595Y038982D01*
X03535Y04679D02*
Y04644D01*
X035525D01*
X035583Y046498D01*
Y046557D01*
X035525Y046615D01*
X03535D01*
X035525D01*
X035583Y046673D01*
Y046732D01*
X035525Y04679D01*
X03535D01*
X035758Y046673D02*
X035875D01*
X035933Y046615D01*
Y04644D01*
X035758D01*
X0357Y046498D01*
X035758Y046557D01*
X035933D01*
X036108Y046732D02*
Y046673D01*
X03605D01*
X036166D01*
X036108D01*
Y046498D01*
X036166Y04644D01*
X036341D02*
X036458D01*
X0364D01*
Y04679D01*
X036341Y046732D01*
X05635Y03104D02*
Y03139D01*
X056525D01*
X056583Y031332D01*
Y031215D01*
X056525Y031157D01*
X05635D01*
X056933Y03139D02*
X056817Y031332D01*
X0567Y031215D01*
Y031098D01*
X056758Y03104D01*
X056875D01*
X056933Y031098D01*
Y031157D01*
X056875Y031215D01*
X0567D01*
D39*
X051381Y039921D02*
Y04007D01*
X051657D01*
X05138Y03351D02*
X051657D01*
X05138D02*
X051381Y033511D01*
Y0337D01*
X059885Y03351D02*
X0632D01*
X059885Y04007D02*
X0632D01*
Y03351D02*
Y04007D01*
D40*
X04745Y04549D02*
X04755D01*
Y04679D01*
X04745D02*
X04755D01*
X04745D02*
Y04709D01*
X04195Y04549D02*
X04215D01*
X04195D02*
Y04679D01*
X04205D01*
Y04709D01*
X04255D02*
X04695D01*
X04255Y04549D02*
Y04709D01*
X04205Y04549D02*
X04255D01*
X04125Y04709D02*
X04205D01*
X04125Y04429D02*
Y04709D01*
Y04429D02*
X04185D01*
X04695Y04549D02*
Y04709D01*
Y04549D02*
X04745D01*
Y04709D02*
X04825D01*
Y04429D02*
Y04709D01*
X04765Y04429D02*
X04825D01*
X04765D02*
Y04459D01*
X04685D02*
X04765D01*
X04685Y04429D02*
Y04459D01*
X04665Y04429D02*
X04685D01*
X04665D02*
Y04459D01*
X04585D02*
X04665D01*
X04585Y04429D02*
Y04459D01*
X04565Y04429D02*
X04585D01*
X04565D02*
Y04459D01*
X04485D02*
X04565D01*
X04485Y04429D02*
Y04459D01*
X04465Y04429D02*
X04485D01*
X04465D02*
Y04459D01*
X04385D02*
X04465D01*
X04385Y04429D02*
Y04459D01*
X04365Y04429D02*
X04385D01*
X04365D02*
Y04459D01*
X04285D02*
X04365D01*
X04285Y04429D02*
Y04459D01*
X04265Y04429D02*
X04285D01*
X04265D02*
Y04459D01*
X04185D02*
X04265D01*
X04185Y04429D02*
Y04459D01*
D41*
X039655Y040344D02*
D03*
X036466Y035004D02*
D03*
X036466Y036304D02*
D03*
X037716Y037554D02*
D03*
D42*
X038504Y028232D02*
D03*
M02*
