G04 Layer_Color=8388736*
%FSTAX24Y24*%
%MOIN*%
G70*
G01*
G75*
%ADD43R,0.0315X0.0551*%
G04:AMPARAMS|DCode=44|XSize=71mil|YSize=39.5mil|CornerRadius=11.9mil|HoleSize=0mil|Usage=FLASHONLY|Rotation=90.000|XOffset=0mil|YOffset=0mil|HoleType=Round|Shape=RoundedRectangle|*
%AMROUNDEDRECTD44*
21,1,0.0710,0.0157,0,0,90.0*
21,1,0.0472,0.0395,0,0,90.0*
1,1,0.0237,0.0079,0.0236*
1,1,0.0237,0.0079,-0.0236*
1,1,0.0237,-0.0079,-0.0236*
1,1,0.0237,-0.0079,0.0236*
%
%ADD44ROUNDEDRECTD44*%
G04:AMPARAMS|DCode=45|XSize=71mil|YSize=39.5mil|CornerRadius=11.9mil|HoleSize=0mil|Usage=FLASHONLY|Rotation=0.000|XOffset=0mil|YOffset=0mil|HoleType=Round|Shape=RoundedRectangle|*
%AMROUNDEDRECTD45*
21,1,0.0710,0.0157,0,0,0.0*
21,1,0.0472,0.0395,0,0,0.0*
1,1,0.0237,0.0236,-0.0079*
1,1,0.0237,-0.0236,-0.0079*
1,1,0.0237,-0.0236,0.0079*
1,1,0.0237,0.0236,0.0079*
%
%ADD45ROUNDEDRECTD45*%
%ADD46R,0.0474X0.0631*%
%ADD47R,0.0678X0.0741*%
%ADD48R,0.0551X0.0315*%
%ADD49R,0.0394X0.0413*%
%ADD50R,0.0446X0.0596*%
%ADD51R,0.1356X0.0596*%
%ADD52R,0.0741X0.0678*%
%ADD53R,0.0236X0.0276*%
%ADD54C,0.0710*%
%ADD55C,0.2049*%
%ADD56C,0.1261*%
%ADD57R,0.0671X0.0671*%
%ADD58C,0.0867*%
%ADD59R,0.0690X0.0690*%
%ADD60R,0.0710X0.0710*%
%ADD61C,0.0789*%
%ADD62C,0.0552*%
D43*
X039248Y03079D02*
D03*
X0385D02*
D03*
X045876Y03739D02*
D03*
X046624D02*
D03*
X045876Y03824D02*
D03*
X046624D02*
D03*
X045826Y03504D02*
D03*
X046574D02*
D03*
X045826Y03419D02*
D03*
X046574D02*
D03*
X05025Y03939D02*
D03*
X049502D02*
D03*
X05025Y03854D02*
D03*
X049502D02*
D03*
X038276Y03499D02*
D03*
X039024D02*
D03*
X038276Y03634D02*
D03*
X039024D02*
D03*
X041248Y03779D02*
D03*
X0405D02*
D03*
X035998Y03289D02*
D03*
X03525D02*
D03*
X034998Y03184D02*
D03*
X03425D02*
D03*
X029326Y02999D02*
D03*
X030074D02*
D03*
X029326Y03139D02*
D03*
X030074D02*
D03*
X044748Y03779D02*
D03*
X044D02*
D03*
X041248Y03554D02*
D03*
X0405D02*
D03*
X044748D02*
D03*
X044D02*
D03*
D44*
X053Y04004D02*
D03*
X0535D02*
D03*
X054D02*
D03*
X0545D02*
D03*
X055D02*
D03*
X0555D02*
D03*
X056D02*
D03*
X0565D02*
D03*
X057D02*
D03*
X0575D02*
D03*
X058D02*
D03*
X0585D02*
D03*
X059D02*
D03*
X0595D02*
D03*
X0525D02*
D03*
X052D02*
D03*
Y03355D02*
D03*
X0525D02*
D03*
X053D02*
D03*
X0535D02*
D03*
X054D02*
D03*
X0545D02*
D03*
X055D02*
D03*
X0555D02*
D03*
X056D02*
D03*
X0565D02*
D03*
X057D02*
D03*
X0575D02*
D03*
X058D02*
D03*
X0585D02*
D03*
X059D02*
D03*
X0595D02*
D03*
D45*
X051421Y039566D02*
D03*
Y039066D02*
D03*
Y038566D02*
D03*
Y038066D02*
D03*
Y037566D02*
D03*
Y037066D02*
D03*
Y036566D02*
D03*
Y036066D02*
D03*
Y035566D02*
D03*
Y035066D02*
D03*
Y034566D02*
D03*
Y034066D02*
D03*
D46*
X0403Y04034D02*
D03*
X039001D02*
D03*
D47*
X035642Y035D02*
D03*
Y0363D02*
D03*
X037158Y035D02*
D03*
Y0363D02*
D03*
X038408Y03755D02*
D03*
X036892D02*
D03*
D48*
X03755Y039226D02*
D03*
Y039974D02*
D03*
X0593Y041814D02*
D03*
Y041066D02*
D03*
X05023Y035524D02*
D03*
Y034776D02*
D03*
X0493Y034776D02*
D03*
Y035524D02*
D03*
X0481Y036466D02*
D03*
Y037214D02*
D03*
X0354Y038274D02*
D03*
Y037526D02*
D03*
X037Y03304D02*
D03*
Y032292D02*
D03*
X03825Y033788D02*
D03*
Y03304D02*
D03*
D49*
X04805Y035642D02*
D03*
X047676Y034658D02*
D03*
X048424D02*
D03*
X0493Y037382D02*
D03*
X048926Y036398D02*
D03*
X049674D02*
D03*
D50*
X03305Y031807D02*
D03*
X032148D02*
D03*
X031246D02*
D03*
D51*
X032148Y029173D02*
D03*
D52*
X0385Y02754D02*
D03*
Y029056D02*
D03*
D53*
X058Y03204D02*
D03*
X057606D02*
D03*
X058894D02*
D03*
X0585D02*
D03*
D54*
X034Y03529D02*
D03*
Y03629D02*
D03*
Y03429D02*
D03*
Y03329D02*
D03*
X05Y04554D02*
D03*
Y04654D02*
D03*
X051Y04554D02*
D03*
Y04654D02*
D03*
X052Y04554D02*
D03*
Y04654D02*
D03*
X053Y04554D02*
D03*
Y04654D02*
D03*
X054Y04554D02*
D03*
Y04654D02*
D03*
X055Y04554D02*
D03*
Y04654D02*
D03*
X056Y04554D02*
D03*
Y04654D02*
D03*
X057Y04554D02*
D03*
Y04654D02*
D03*
X058Y04554D02*
D03*
Y04654D02*
D03*
X059Y04554D02*
D03*
Y04654D02*
D03*
X05Y02679D02*
D03*
Y02779D02*
D03*
X051Y02679D02*
D03*
Y02779D02*
D03*
X052Y02679D02*
D03*
Y02779D02*
D03*
X053Y02679D02*
D03*
Y02779D02*
D03*
X054Y02679D02*
D03*
Y02779D02*
D03*
X055Y02679D02*
D03*
Y02779D02*
D03*
X056Y02679D02*
D03*
Y02779D02*
D03*
X057Y02679D02*
D03*
Y02779D02*
D03*
X058Y02679D02*
D03*
Y02779D02*
D03*
X059Y02679D02*
D03*
Y02779D02*
D03*
X04725Y04429D02*
D03*
X04625D02*
D03*
X04525D02*
D03*
X04425D02*
D03*
X04325D02*
D03*
X03985Y04395D02*
D03*
X04775Y04204D02*
D03*
X04175D02*
D03*
X04275D02*
D03*
X04375D02*
D03*
X04475D02*
D03*
X04575D02*
D03*
X04675D02*
D03*
X05875Y03079D02*
D03*
X05775D02*
D03*
D55*
X03Y02754D02*
D03*
X038Y04579D02*
D03*
D56*
X06175Y02754D02*
D03*
Y04579D02*
D03*
D57*
X034Y03729D02*
D03*
X030749Y033072D02*
D03*
Y037508D02*
D03*
D58*
X0376Y04265D02*
D03*
X029726D02*
D03*
D59*
X04225Y04429D02*
D03*
D60*
X03985Y04295D02*
D03*
D61*
X0485Y031772D02*
D03*
Y03374D02*
D03*
X043834Y03215D02*
D03*
X045803D02*
D03*
X040284D02*
D03*
X042253D02*
D03*
X04025Y02839D02*
D03*
X042218D02*
D03*
X04375D02*
D03*
X045718D02*
D03*
D62*
X036534Y029111D02*
D03*
X034566D02*
D03*
X03555Y03045D02*
D03*
X034566D02*
D03*
X036534D02*
D03*
X03555Y029111D02*
D03*
M02*
