G04 Layer_Color=16711935*
%FSTAX24Y24*%
%MOIN*%
G70*
G01*
G75*
%ADD54C,0.0710*%
%ADD55C,0.2049*%
%ADD56C,0.1261*%
%ADD57R,0.0671X0.0671*%
%ADD58C,0.0867*%
%ADD59R,0.0690X0.0690*%
%ADD60R,0.0710X0.0710*%
%ADD61C,0.0789*%
%ADD62C,0.0552*%
%ADD63C,0.0240*%
%ADD64C,0.0159*%
D54*
X034Y03529D02*
D03*
Y03629D02*
D03*
Y03429D02*
D03*
Y03329D02*
D03*
X05Y04554D02*
D03*
Y04654D02*
D03*
X051Y04554D02*
D03*
Y04654D02*
D03*
X052Y04554D02*
D03*
Y04654D02*
D03*
X053Y04554D02*
D03*
Y04654D02*
D03*
X054Y04554D02*
D03*
Y04654D02*
D03*
X055Y04554D02*
D03*
Y04654D02*
D03*
X056Y04554D02*
D03*
Y04654D02*
D03*
X057Y04554D02*
D03*
Y04654D02*
D03*
X058Y04554D02*
D03*
Y04654D02*
D03*
X059Y04554D02*
D03*
Y04654D02*
D03*
X05Y02679D02*
D03*
Y02779D02*
D03*
X051Y02679D02*
D03*
Y02779D02*
D03*
X052Y02679D02*
D03*
Y02779D02*
D03*
X053Y02679D02*
D03*
Y02779D02*
D03*
X054Y02679D02*
D03*
Y02779D02*
D03*
X055Y02679D02*
D03*
Y02779D02*
D03*
X056Y02679D02*
D03*
Y02779D02*
D03*
X057Y02679D02*
D03*
Y02779D02*
D03*
X058Y02679D02*
D03*
Y02779D02*
D03*
X059Y02679D02*
D03*
Y02779D02*
D03*
X04725Y04429D02*
D03*
X04625D02*
D03*
X04525D02*
D03*
X04425D02*
D03*
X04325D02*
D03*
X03985Y04395D02*
D03*
X04775Y04204D02*
D03*
X04175D02*
D03*
X04275D02*
D03*
X04375D02*
D03*
X04475D02*
D03*
X04575D02*
D03*
X04675D02*
D03*
X05875Y03079D02*
D03*
X05775D02*
D03*
D55*
X03Y02754D02*
D03*
X038Y04579D02*
D03*
D56*
X06175Y02754D02*
D03*
Y04579D02*
D03*
D57*
X034Y03729D02*
D03*
X030749Y033072D02*
D03*
Y037508D02*
D03*
D58*
X0376Y04265D02*
D03*
X029726D02*
D03*
D59*
X04225Y04429D02*
D03*
D60*
X03985Y04295D02*
D03*
D61*
X0485Y031772D02*
D03*
Y03374D02*
D03*
X043834Y03215D02*
D03*
X045803D02*
D03*
X040284D02*
D03*
X042253D02*
D03*
X04025Y02839D02*
D03*
X042218D02*
D03*
X04375D02*
D03*
X045718D02*
D03*
D62*
X036534Y029111D02*
D03*
X034566D02*
D03*
X03555Y03045D02*
D03*
X034566D02*
D03*
X036534D02*
D03*
X03555Y029111D02*
D03*
D63*
X050011Y03691D02*
G03*
X050011Y03691I-00011J0D01*
G01*
X04436Y042979D02*
G03*
X04436Y042979I-00011J0D01*
G01*
Y043001D02*
G03*
X04436Y043001I-00011J0D01*
G01*
D64*
X050023Y03691D02*
D03*
X049777D02*
D03*
X04425Y042857D02*
D03*
Y043123D02*
D03*
M02*
