G04 Layer_Color=2752767*
%FSTAX24Y24*%
%MOIN*%
G70*
G01*
G75*
%ADD68C,0.0020*%
%ADD69C,0.0027*%
D68*
X03392Y03521D02*
Y03537D01*
X03408D01*
Y03521D01*
X03392D01*
Y03621D02*
Y03637D01*
X03408D01*
Y03621D01*
X03392D01*
Y03721D02*
Y03737D01*
X03408D01*
Y03721D01*
X03392D01*
Y03421D02*
Y03437D01*
X03408D01*
Y03421D01*
X03392D01*
Y03321D02*
Y03337D01*
X03408D01*
Y03321D01*
X03392D01*
X030669Y032992D02*
Y033152D01*
X030829D01*
Y032992D01*
X030669D01*
Y037428D02*
Y037588D01*
X030829D01*
Y037428D01*
X030669D01*
X04992Y04546D02*
Y04562D01*
X05008D01*
Y04546D01*
X04992D01*
Y04646D02*
Y04662D01*
X05008D01*
Y04646D01*
X04992D01*
X05092Y04546D02*
Y04562D01*
X05108D01*
Y04546D01*
X05092D01*
Y04646D02*
Y04662D01*
X05108D01*
Y04646D01*
X05092D01*
X05192Y04546D02*
Y04562D01*
X05208D01*
Y04546D01*
X05192D01*
Y04646D02*
Y04662D01*
X05208D01*
Y04646D01*
X05192D01*
X05292Y04546D02*
Y04562D01*
X05308D01*
Y04546D01*
X05292D01*
Y04646D02*
Y04662D01*
X05308D01*
Y04646D01*
X05292D01*
X05392Y04546D02*
Y04562D01*
X05408D01*
Y04546D01*
X05392D01*
Y04646D02*
Y04662D01*
X05408D01*
Y04646D01*
X05392D01*
X05492Y04546D02*
Y04562D01*
X05508D01*
Y04546D01*
X05492D01*
Y04646D02*
Y04662D01*
X05508D01*
Y04646D01*
X05492D01*
X05592Y04546D02*
Y04562D01*
X05608D01*
Y04546D01*
X05592D01*
Y04646D02*
Y04662D01*
X05608D01*
Y04646D01*
X05592D01*
X05692Y04546D02*
Y04562D01*
X05708D01*
Y04546D01*
X05692D01*
Y04646D02*
Y04662D01*
X05708D01*
Y04646D01*
X05692D01*
X05792Y04546D02*
Y04562D01*
X05808D01*
Y04546D01*
X05792D01*
Y04646D02*
Y04662D01*
X05808D01*
Y04646D01*
X05792D01*
X05892Y04546D02*
Y04562D01*
X05908D01*
Y04546D01*
X05892D01*
Y04646D02*
Y04662D01*
X05908D01*
Y04646D01*
X05892D01*
X04992Y02671D02*
Y02687D01*
X05008D01*
Y02671D01*
X04992D01*
Y02771D02*
Y02787D01*
X05008D01*
Y02771D01*
X04992D01*
X05092Y02671D02*
Y02687D01*
X05108D01*
Y02671D01*
X05092D01*
Y02771D02*
Y02787D01*
X05108D01*
Y02771D01*
X05092D01*
X05192Y02671D02*
Y02687D01*
X05208D01*
Y02671D01*
X05192D01*
Y02771D02*
Y02787D01*
X05208D01*
Y02771D01*
X05192D01*
X05292Y02671D02*
Y02687D01*
X05308D01*
Y02671D01*
X05292D01*
Y02771D02*
Y02787D01*
X05308D01*
Y02771D01*
X05292D01*
X05392Y02671D02*
Y02687D01*
X05408D01*
Y02671D01*
X05392D01*
Y02771D02*
Y02787D01*
X05408D01*
Y02771D01*
X05392D01*
X05492Y02671D02*
Y02687D01*
X05508D01*
Y02671D01*
X05492D01*
Y02771D02*
Y02787D01*
X05508D01*
Y02771D01*
X05492D01*
X05592Y02671D02*
Y02687D01*
X05608D01*
Y02671D01*
X05592D01*
Y02771D02*
Y02787D01*
X05608D01*
Y02771D01*
X05592D01*
X05692Y02671D02*
Y02687D01*
X05708D01*
Y02671D01*
X05692D01*
Y02771D02*
Y02787D01*
X05708D01*
Y02771D01*
X05692D01*
X05792Y02671D02*
Y02687D01*
X05808D01*
Y02671D01*
X05792D01*
Y02771D02*
Y02787D01*
X05808D01*
Y02771D01*
X05792D01*
X05892Y02671D02*
Y02687D01*
X05908D01*
Y02671D01*
X05892D01*
Y02771D02*
Y02787D01*
X05908D01*
Y02771D01*
X05892D01*
X0376Y04257D02*
X03752Y04273D01*
X03768D01*
X0376Y04257D01*
X029726D02*
X029646Y04273D01*
X029806D01*
X029726Y04257D01*
X04725Y04421D02*
X04729Y04425D01*
X04733D01*
X04729Y04429D01*
X04733Y04433D01*
X04729D01*
X04725Y04437D01*
X04721Y04433D01*
X04717D01*
X04721Y04429D01*
X04717Y04425D01*
X04721D01*
X04725Y04421D01*
X04625D02*
X04629Y04425D01*
X04633D01*
X04629Y04429D01*
X04633Y04433D01*
X04629D01*
X04625Y04437D01*
X04621Y04433D01*
X04617D01*
X04621Y04429D01*
X04617Y04425D01*
X04621D01*
X04625Y04421D01*
X04525D02*
X04529Y04425D01*
X04533D01*
X04529Y04429D01*
X04533Y04433D01*
X04529D01*
X04525Y04437D01*
X04521Y04433D01*
X04517D01*
X04521Y04429D01*
X04517Y04425D01*
X04521D01*
X04525Y04421D01*
X04425D02*
X04429Y04425D01*
X04433D01*
X04429Y04429D01*
X04433Y04433D01*
X04429D01*
X04425Y04437D01*
X04421Y04433D01*
X04417D01*
X04421Y04429D01*
X04417Y04425D01*
X04421D01*
X04425Y04421D01*
X04325D02*
X04329Y04425D01*
X04333D01*
X04329Y04429D01*
X04333Y04433D01*
X04329D01*
X04325Y04437D01*
X04321Y04433D01*
X04317D01*
X04321Y04429D01*
X04317Y04425D01*
X04321D01*
X04325Y04421D01*
X04225D02*
X04229Y04425D01*
X04233D01*
X04229Y04429D01*
X04233Y04433D01*
X04229D01*
X04225Y04437D01*
X04221Y04433D01*
X04217D01*
X04221Y04429D01*
X04217Y04425D01*
X04221D01*
X04225Y04421D01*
X03977Y04287D02*
Y04303D01*
X03993D01*
Y04287D01*
X03977D01*
Y04387D02*
Y04403D01*
X03993D01*
Y04387D01*
X03977D01*
X04767Y04196D02*
Y04212D01*
X04783D01*
Y04196D01*
X04767D01*
X04167D02*
Y04212D01*
X04183D01*
Y04196D01*
X04167D01*
X04267D02*
Y04212D01*
X04283D01*
Y04196D01*
X04267D01*
X04367D02*
Y04212D01*
X04383D01*
Y04196D01*
X04367D01*
X04467D02*
Y04212D01*
X04483D01*
Y04196D01*
X04467D01*
X04567D02*
Y04212D01*
X04583D01*
Y04196D01*
X04567D01*
X04667D02*
Y04212D01*
X04683D01*
Y04196D01*
X04667D01*
X05867Y03071D02*
Y03087D01*
X05883D01*
Y03071D01*
X05867D01*
X05767D02*
Y03087D01*
X05783D01*
Y03071D01*
X05767D01*
X0485Y031692D02*
X04854Y031732D01*
X04858D01*
X04854Y031772D01*
X04858Y031811D01*
X04854D01*
X0485Y031851D01*
X04846Y031811D01*
X04842D01*
X04846Y031772D01*
X04842Y031732D01*
X04846D01*
X0485Y031692D01*
Y03366D02*
X04854Y0337D01*
X04858D01*
X04854Y03374D01*
X04858Y03378D01*
X04854D01*
X0485Y03382D01*
X04846Y03378D01*
X04842D01*
X04846Y03374D01*
X04842Y0337D01*
X04846D01*
X0485Y03366D01*
X036454Y029031D02*
X036494Y029111D01*
X036454Y029191D01*
X036534Y029151D01*
X036614Y029191D01*
X036574Y029111D01*
X036614Y029031D01*
X036534Y029071D01*
X036454Y029031D01*
X034486D02*
X034526Y029111D01*
X034486Y029191D01*
X034566Y029151D01*
X034646Y029191D01*
X034606Y029111D01*
X034646Y029031D01*
X034566Y029071D01*
X034486Y029031D01*
X03547Y03037D02*
X03551Y03045D01*
X03547Y03053D01*
X03555Y03049D01*
X03563Y03053D01*
X03559Y03045D01*
X03563Y03037D01*
X03555Y03041D01*
X03547Y03037D01*
X034486D02*
X034526Y03045D01*
X034486Y03053D01*
X034566Y03049D01*
X034646Y03053D01*
X034606Y03045D01*
X034646Y03037D01*
X034566Y03041D01*
X034486Y03037D01*
X036454D02*
X036494Y03045D01*
X036454Y03053D01*
X036534Y03049D01*
X036614Y03053D01*
X036574Y03045D01*
X036614Y03037D01*
X036534Y03041D01*
X036454Y03037D01*
X03547Y029031D02*
X03551Y029111D01*
X03547Y029191D01*
X03555Y029151D01*
X03563Y029191D01*
X03559Y029111D01*
X03563Y029031D01*
X03555Y029071D01*
X03547Y029031D01*
X043834Y03207D02*
X043874Y03211D01*
X043914D01*
X043874Y03215D01*
X043914Y03219D01*
X043874D01*
X043834Y03223D01*
X043794Y03219D01*
X043754D01*
X043794Y03215D01*
X043754Y03211D01*
X043794D01*
X043834Y03207D01*
X045803D02*
X045843Y03211D01*
X045883D01*
X045843Y03215D01*
X045883Y03219D01*
X045843D01*
X045803Y03223D01*
X045763Y03219D01*
X045723D01*
X045763Y03215D01*
X045723Y03211D01*
X045763D01*
X045803Y03207D01*
X040284D02*
X040324Y03211D01*
X040364D01*
X040324Y03215D01*
X040364Y03219D01*
X040324D01*
X040284Y03223D01*
X040244Y03219D01*
X040204D01*
X040244Y03215D01*
X040204Y03211D01*
X040244D01*
X040284Y03207D01*
X042253D02*
X042293Y03211D01*
X042333D01*
X042293Y03215D01*
X042333Y03219D01*
X042293D01*
X042253Y03223D01*
X042213Y03219D01*
X042173D01*
X042213Y03215D01*
X042173Y03211D01*
X042213D01*
X042253Y03207D01*
X04025Y02831D02*
X04029Y02835D01*
X04033D01*
X04029Y02839D01*
X04033Y02843D01*
X04029D01*
X04025Y02847D01*
X04021Y02843D01*
X04017D01*
X04021Y02839D01*
X04017Y02835D01*
X04021D01*
X04025Y02831D01*
X042218D02*
X042259Y02835D01*
X042298D01*
X042259Y02839D01*
X042298Y02843D01*
X042259D01*
X042218Y02847D01*
X042179Y02843D01*
X042139D01*
X042179Y02839D01*
X042139Y02835D01*
X042179D01*
X042218Y02831D01*
X04375D02*
X04379Y02835D01*
X04383D01*
X04379Y02839D01*
X04383Y02843D01*
X04379D01*
X04375Y02847D01*
X04371Y02843D01*
X04367D01*
X04371Y02839D01*
X04367Y02835D01*
X04371D01*
X04375Y02831D01*
X045718D02*
X045759Y02835D01*
X045799D01*
X045759Y02839D01*
X045799Y02843D01*
X045759D01*
X045718Y02847D01*
X045679Y02843D01*
X045638D01*
X045679Y02839D01*
X045638Y02835D01*
X045679D01*
X045718Y02831D01*
X05066Y0385D02*
Y03846D01*
X05074D01*
Y0385D01*
X05078D01*
Y03858D01*
X05074D01*
Y03862D01*
X05066D01*
Y03858D01*
X05062D01*
Y0385D01*
X05066D01*
X04771Y0285D02*
Y02846D01*
X04779D01*
Y0285D01*
X04783D01*
Y02858D01*
X04779D01*
Y02862D01*
X04771D01*
Y02858D01*
X04767D01*
Y0285D01*
X04771D01*
X04971D02*
Y02846D01*
X04979D01*
Y0285D01*
X04983D01*
Y02858D01*
X04979D01*
Y02862D01*
X04971D01*
Y02858D01*
X04967D01*
Y0285D01*
X04971D01*
X05171D02*
Y02846D01*
X05179D01*
Y0285D01*
X05183D01*
Y02858D01*
X05179D01*
Y02862D01*
X05171D01*
Y02858D01*
X05167D01*
Y0285D01*
X05171D01*
X04757Y03606D02*
Y03602D01*
X04765D01*
Y03606D01*
X04769D01*
Y03614D01*
X04765D01*
Y03618D01*
X04757D01*
Y03614D01*
X04753D01*
Y03606D01*
X04757D01*
X04848Y03533D02*
Y03529D01*
X04856D01*
Y03533D01*
X0486D01*
Y03541D01*
X04856D01*
Y03545D01*
X04848D01*
Y03541D01*
X04844D01*
Y03533D01*
X04848D01*
X03271Y0325D02*
Y03246D01*
X03279D01*
Y0325D01*
X03283D01*
Y03258D01*
X03279D01*
Y03262D01*
X03271D01*
Y03258D01*
X03267D01*
Y0325D01*
X03271D01*
X03746Y0305D02*
Y03046D01*
X03754D01*
Y0305D01*
X03758D01*
Y03058D01*
X03754D01*
Y03062D01*
X03746D01*
Y03058D01*
X03742D01*
Y0305D01*
X03746D01*
X03846Y0325D02*
Y03246D01*
X03854D01*
Y0325D01*
X03858D01*
Y03258D01*
X03854D01*
Y03262D01*
X03846D01*
Y03258D01*
X03842D01*
Y0325D01*
X03846D01*
Y0355D02*
Y03546D01*
X03854D01*
Y0355D01*
X03858D01*
Y03558D01*
X03854D01*
Y03562D01*
X03846D01*
Y03558D01*
X03842D01*
Y0355D01*
X03846D01*
X03171Y045D02*
Y04496D01*
X03179D01*
Y045D01*
X03183D01*
Y04508D01*
X03179D01*
Y04512D01*
X03171D01*
Y04508D01*
X03167D01*
Y045D01*
X03171D01*
X03871Y0415D02*
Y04146D01*
X03879D01*
Y0415D01*
X03883D01*
Y04158D01*
X03879D01*
Y04162D01*
X03871D01*
Y04158D01*
X03867D01*
Y0415D01*
X03871D01*
X04446Y047D02*
Y04696D01*
X04454D01*
Y047D01*
X04458D01*
Y04708D01*
X04454D01*
Y04712D01*
X04446D01*
Y04708D01*
X04442D01*
Y047D01*
X04446D01*
X04871Y0295D02*
Y02946D01*
X04879D01*
Y0295D01*
X04883D01*
Y02958D01*
X04879D01*
Y02962D01*
X04871D01*
Y02958D01*
X04867D01*
Y0295D01*
X04871D01*
X05071D02*
Y02946D01*
X05079D01*
Y0295D01*
X05083D01*
Y02958D01*
X05079D01*
Y02962D01*
X05071D01*
Y02958D01*
X05067D01*
Y0295D01*
X05071D01*
X04996Y03075D02*
Y03071D01*
X05004D01*
Y03075D01*
X05008D01*
Y03083D01*
X05004D01*
Y03087D01*
X04996D01*
Y03083D01*
X04992D01*
Y03075D01*
X04996D01*
X05146D02*
Y03071D01*
X05154D01*
Y03075D01*
X05158D01*
Y03083D01*
X05154D01*
Y03087D01*
X05146D01*
Y03083D01*
X05142D01*
Y03075D01*
X05146D01*
Y032D02*
Y03196D01*
X05154D01*
Y032D01*
X05158D01*
Y03208D01*
X05154D01*
Y03212D01*
X05146D01*
Y03208D01*
X05142D01*
Y032D01*
X05146D01*
X04996Y03225D02*
Y03221D01*
X05004D01*
Y03225D01*
X05008D01*
Y03233D01*
X05004D01*
Y03237D01*
X04996D01*
Y03233D01*
X04992D01*
Y03225D01*
X04996D01*
X04671Y0302D02*
Y03016D01*
X04679D01*
Y0302D01*
X04683D01*
Y03028D01*
X04679D01*
Y03032D01*
X04671D01*
Y03028D01*
X04667D01*
Y0302D01*
X04671D01*
X04071Y035D02*
Y03496D01*
X04079D01*
Y035D01*
X04083D01*
Y03508D01*
X04079D01*
Y03512D01*
X04071D01*
Y03508D01*
X04067D01*
Y035D01*
X04071D01*
X04346Y03475D02*
Y03471D01*
X04354D01*
Y03475D01*
X04358D01*
Y03483D01*
X04354D01*
Y03487D01*
X04346D01*
Y03483D01*
X04342D01*
Y03475D01*
X04346D01*
X04571Y0365D02*
Y03646D01*
X04579D01*
Y0365D01*
X04583D01*
Y03658D01*
X04579D01*
Y03662D01*
X04571D01*
Y03658D01*
X04567D01*
Y0365D01*
X04571D01*
X04196Y037D02*
Y03696D01*
X04204D01*
Y037D01*
X04208D01*
Y03708D01*
X04204D01*
Y03712D01*
X04196D01*
Y03708D01*
X04192D01*
Y037D01*
X04196D01*
X04321Y0395D02*
Y03946D01*
X04329D01*
Y0395D01*
X04333D01*
Y03958D01*
X04329D01*
Y03962D01*
X04321D01*
Y03958D01*
X04317D01*
Y0395D01*
X04321D01*
X04536Y04075D02*
Y04071D01*
X04544D01*
Y04075D01*
X04548D01*
Y04083D01*
X04544D01*
Y04087D01*
X04536D01*
Y04083D01*
X04532D01*
Y04075D01*
X04536D01*
X04621Y04015D02*
Y04011D01*
X04629D01*
Y04015D01*
X04633D01*
Y04023D01*
X04629D01*
Y04027D01*
X04621D01*
Y04023D01*
X04617D01*
Y04015D01*
X04621D01*
X04821Y039D02*
Y03896D01*
X04829D01*
Y039D01*
X04833D01*
Y03908D01*
X04829D01*
Y03912D01*
X04821D01*
Y03908D01*
X04817D01*
Y039D01*
X04821D01*
X04296Y043D02*
Y04296D01*
X04304D01*
Y043D01*
X04308D01*
Y04308D01*
X04304D01*
Y04312D01*
X04296D01*
Y04308D01*
X04292D01*
Y043D01*
X04296D01*
X04671D02*
Y04296D01*
X04679D01*
Y043D01*
X04683D01*
Y04308D01*
X04679D01*
Y04312D01*
X04671D01*
Y04308D01*
X04667D01*
Y043D01*
X04671D01*
X04846Y0439D02*
Y04386D01*
X04854D01*
Y0439D01*
X04858D01*
Y04398D01*
X04854D01*
Y04402D01*
X04846D01*
Y04398D01*
X04842D01*
Y0439D01*
X04846D01*
X04975Y03346D02*
Y03342D01*
X04983D01*
Y03346D01*
X04987D01*
Y03354D01*
X04983D01*
Y03358D01*
X04975D01*
Y03354D01*
X04971D01*
Y03346D01*
X04975D01*
X04798Y03428D02*
Y03424D01*
X04806D01*
Y03428D01*
X0481D01*
Y03436D01*
X04806D01*
Y0344D01*
X04798D01*
Y03436D01*
X04794D01*
Y03428D01*
X04798D01*
X05121Y03325D02*
Y03321D01*
X05129D01*
Y03325D01*
X05133D01*
Y03333D01*
X05129D01*
Y03337D01*
X05121D01*
Y03333D01*
X05117D01*
Y03325D01*
X05121D01*
X03646Y0395D02*
Y03946D01*
X03654D01*
Y0395D01*
X03658D01*
Y03958D01*
X03654D01*
Y03962D01*
X03646D01*
Y03958D01*
X03642D01*
Y0395D01*
X03646D01*
X03896Y03875D02*
Y03871D01*
X03904D01*
Y03875D01*
X03908D01*
Y03883D01*
X03904D01*
Y03887D01*
X03896D01*
Y03883D01*
X03892D01*
Y03875D01*
X03896D01*
X03491Y03665D02*
Y03661D01*
X03499D01*
Y03665D01*
X03503D01*
Y03673D01*
X03499D01*
Y03677D01*
X03491D01*
Y03673D01*
X03487D01*
Y03665D01*
X03491D01*
Y03575D02*
Y03571D01*
X03499D01*
Y03575D01*
X03503D01*
Y03583D01*
X03499D01*
Y03587D01*
X03491D01*
Y03583D01*
X03487D01*
Y03575D01*
X03491D01*
X03271Y03475D02*
Y03471D01*
X03279D01*
Y03475D01*
X03283D01*
Y03483D01*
X03279D01*
Y03487D01*
X03271D01*
Y03483D01*
X03267D01*
Y03475D01*
X03271D01*
X03771Y03625D02*
Y03621D01*
X03779D01*
Y03625D01*
X03783D01*
Y03633D01*
X03779D01*
Y03637D01*
X03771D01*
Y03633D01*
X03767D01*
Y03625D01*
X03771D01*
Y03495D02*
Y03491D01*
X03779D01*
Y03495D01*
X03783D01*
Y03503D01*
X03779D01*
Y03507D01*
X03771D01*
Y03503D01*
X03767D01*
Y03495D01*
X03771D01*
X03596Y034D02*
Y03396D01*
X03604D01*
Y034D01*
X03608D01*
Y03408D01*
X03604D01*
Y03412D01*
X03596D01*
Y03408D01*
X03592D01*
Y034D01*
X03596D01*
X03546Y032D02*
Y03196D01*
X03554D01*
Y032D01*
X03558D01*
Y03208D01*
X03554D01*
Y03212D01*
X03546D01*
Y03208D01*
X03542D01*
Y032D01*
X03546D01*
X03196Y031D02*
Y03096D01*
X03204D01*
Y031D01*
X03208D01*
Y03108D01*
X03204D01*
Y03112D01*
X03196D01*
Y03108D01*
X03192D01*
Y031D01*
X03196D01*
X03221Y03D02*
Y02996D01*
X03229D01*
Y03D01*
X03233D01*
Y03008D01*
X03229D01*
Y03012D01*
X03221D01*
Y03008D01*
X03217D01*
Y03D01*
X03221D01*
X03046Y0305D02*
Y03046D01*
X03054D01*
Y0305D01*
X03058D01*
Y03058D01*
X03054D01*
Y03062D01*
X03046D01*
Y03058D01*
X03042D01*
Y0305D01*
X03046D01*
X04096Y043D02*
Y04296D01*
X04104D01*
Y043D01*
X04108D01*
Y04308D01*
X04104D01*
Y04312D01*
X04096D01*
Y04308D01*
X04092D01*
Y043D01*
X04096D01*
X04746Y046D02*
Y04596D01*
X04754D01*
Y046D01*
X04758D01*
Y04608D01*
X04754D01*
Y04612D01*
X04746D01*
Y04608D01*
X04742D01*
Y046D01*
X04746D01*
X04346D02*
Y04596D01*
X04354D01*
Y046D01*
X04358D01*
Y04608D01*
X04354D01*
Y04612D01*
X04346D01*
Y04608D01*
X04342D01*
Y046D01*
X04346D01*
X03846Y043D02*
Y04296D01*
X03854D01*
Y043D01*
X03858D01*
Y04308D01*
X03854D01*
Y04312D01*
X03846D01*
Y04308D01*
X03842D01*
Y043D01*
X03846D01*
X04146Y0455D02*
Y04546D01*
X04154D01*
Y0455D01*
X04158D01*
Y04558D01*
X04154D01*
Y04562D01*
X04146D01*
Y04558D01*
X04142D01*
Y0455D01*
X04146D01*
X03046Y035D02*
Y03496D01*
X03054D01*
Y035D01*
X03058D01*
Y03508D01*
X03054D01*
Y03512D01*
X03046D01*
Y03508D01*
X03042D01*
Y035D01*
X03046D01*
X03221Y0395D02*
Y03946D01*
X03229D01*
Y0395D01*
X03233D01*
Y03958D01*
X03229D01*
Y03962D01*
X03221D01*
Y03958D01*
X03217D01*
Y0395D01*
X03221D01*
X03596Y0415D02*
Y04146D01*
X03604D01*
Y0415D01*
X03608D01*
Y04158D01*
X03604D01*
Y04162D01*
X03596D01*
Y04158D01*
X03592D01*
Y0415D01*
X03596D01*
X03171D02*
Y04146D01*
X03179D01*
Y0415D01*
X03183D01*
Y04158D01*
X03179D01*
Y04162D01*
X03171D01*
Y04158D01*
X03167D01*
Y0415D01*
X03171D01*
X03346Y02625D02*
Y02621D01*
X03354D01*
Y02625D01*
X03358D01*
Y02633D01*
X03354D01*
Y02637D01*
X03346D01*
Y02633D01*
X03342D01*
Y02625D01*
X03346D01*
X03746D02*
Y02621D01*
X03754D01*
Y02625D01*
X03758D01*
Y02633D01*
X03754D01*
Y02637D01*
X03746D01*
Y02633D01*
X03742D01*
Y02625D01*
X03746D01*
X04146D02*
Y02621D01*
X04154D01*
Y02625D01*
X04158D01*
Y02633D01*
X04154D01*
Y02637D01*
X04146D01*
Y02633D01*
X04142D01*
Y02625D01*
X04146D01*
X04546D02*
Y02621D01*
X04554D01*
Y02625D01*
X04558D01*
Y02633D01*
X04554D01*
Y02637D01*
X04546D01*
Y02633D01*
X04542D01*
Y02625D01*
X04546D01*
X04946D02*
Y02621D01*
X04954D01*
Y02625D01*
X04958D01*
Y02633D01*
X04954D01*
Y02637D01*
X04946D01*
Y02633D01*
X04942D01*
Y02625D01*
X04946D01*
X05046Y0265D02*
Y02646D01*
X05054D01*
Y0265D01*
X05058D01*
Y02658D01*
X05054D01*
Y02662D01*
X05046D01*
Y02658D01*
X05042D01*
Y0265D01*
X05046D01*
X05146D02*
Y02646D01*
X05154D01*
Y0265D01*
X05158D01*
Y02658D01*
X05154D01*
Y02662D01*
X05146D01*
Y02658D01*
X05142D01*
Y0265D01*
X05146D01*
X05246D02*
Y02646D01*
X05254D01*
Y0265D01*
X05258D01*
Y02658D01*
X05254D01*
Y02662D01*
X05246D01*
Y02658D01*
X05242D01*
Y0265D01*
X05246D01*
X05346D02*
Y02646D01*
X05354D01*
Y0265D01*
X05358D01*
Y02658D01*
X05354D01*
Y02662D01*
X05346D01*
Y02658D01*
X05342D01*
Y0265D01*
X05346D01*
X05446D02*
Y02646D01*
X05454D01*
Y0265D01*
X05458D01*
Y02658D01*
X05454D01*
Y02662D01*
X05446D01*
Y02658D01*
X05442D01*
Y0265D01*
X05446D01*
X05546D02*
Y02646D01*
X05554D01*
Y0265D01*
X05558D01*
Y02658D01*
X05554D01*
Y02662D01*
X05546D01*
Y02658D01*
X05542D01*
Y0265D01*
X05546D01*
X05646D02*
Y02646D01*
X05654D01*
Y0265D01*
X05658D01*
Y02658D01*
X05654D01*
Y02662D01*
X05646D01*
Y02658D01*
X05642D01*
Y0265D01*
X05646D01*
X05846D02*
Y02646D01*
X05854D01*
Y0265D01*
X05858D01*
Y02658D01*
X05854D01*
Y02662D01*
X05846D01*
Y02658D01*
X05842D01*
Y0265D01*
X05846D01*
X05746D02*
Y02646D01*
X05754D01*
Y0265D01*
X05758D01*
Y02658D01*
X05754D01*
Y02662D01*
X05746D01*
Y02658D01*
X05742D01*
Y0265D01*
X05746D01*
X02896Y03D02*
Y02996D01*
X02904D01*
Y03D01*
X02908D01*
Y03008D01*
X02904D01*
Y03012D01*
X02896D01*
Y03008D01*
X02892D01*
Y03D01*
X02896D01*
Y032D02*
Y03196D01*
X02904D01*
Y032D01*
X02908D01*
Y03208D01*
X02904D01*
Y03212D01*
X02896D01*
Y03208D01*
X02892D01*
Y032D01*
X02896D01*
Y034D02*
Y03396D01*
X02904D01*
Y034D01*
X02908D01*
Y03408D01*
X02904D01*
Y03412D01*
X02896D01*
Y03408D01*
X02892D01*
Y034D01*
X02896D01*
Y036D02*
Y03596D01*
X02904D01*
Y036D01*
X02908D01*
Y03608D01*
X02904D01*
Y03612D01*
X02896D01*
Y03608D01*
X02892D01*
Y036D01*
X02896D01*
Y038D02*
Y03796D01*
X02904D01*
Y038D01*
X02908D01*
Y03808D01*
X02904D01*
Y03812D01*
X02896D01*
Y03808D01*
X02892D01*
Y038D01*
X02896D01*
Y04D02*
Y03996D01*
X02904D01*
Y04D01*
X02908D01*
Y04008D01*
X02904D01*
Y04012D01*
X02896D01*
Y04008D01*
X02892D01*
Y04D01*
X02896D01*
Y0425D02*
Y04246D01*
X02904D01*
Y0425D01*
X02908D01*
Y04258D01*
X02904D01*
Y04262D01*
X02896D01*
Y04258D01*
X02892D01*
Y0425D01*
X02896D01*
Y045D02*
Y04496D01*
X02904D01*
Y045D01*
X02908D01*
Y04508D01*
X02904D01*
Y04512D01*
X02896D01*
Y04508D01*
X02892D01*
Y045D01*
X02896D01*
Y047D02*
Y04696D01*
X02904D01*
Y047D01*
X02908D01*
Y04708D01*
X02904D01*
Y04712D01*
X02896D01*
Y04708D01*
X02892D01*
Y047D01*
X02896D01*
X03446D02*
Y04696D01*
X03454D01*
Y047D01*
X03458D01*
Y04708D01*
X03454D01*
Y04712D01*
X03446D01*
Y04708D01*
X03442D01*
Y047D01*
X03446D01*
X03946D02*
Y04696D01*
X03954D01*
Y047D01*
X03958D01*
Y04708D01*
X03954D01*
Y04712D01*
X03946D01*
Y04708D01*
X03942D01*
Y047D01*
X03946D01*
X04946D02*
Y04696D01*
X04954D01*
Y047D01*
X04958D01*
Y04708D01*
X04954D01*
Y04712D01*
X04946D01*
Y04708D01*
X04942D01*
Y047D01*
X04946D01*
X05096Y0405D02*
Y04046D01*
X05104D01*
Y0405D01*
X05108D01*
Y04058D01*
X05104D01*
Y04062D01*
X05096D01*
Y04058D01*
X05092D01*
Y0405D01*
X05096D01*
Y0425D02*
Y04246D01*
X05104D01*
Y0425D01*
X05108D01*
Y04258D01*
X05104D01*
Y04262D01*
X05096D01*
Y04258D01*
X05092D01*
Y0425D01*
X05096D01*
Y0445D02*
Y04446D01*
X05104D01*
Y0445D01*
X05108D01*
Y04458D01*
X05104D01*
Y04462D01*
X05096D01*
Y04458D01*
X05092D01*
Y0445D01*
X05096D01*
X05296Y03075D02*
Y03071D01*
X05304D01*
Y03075D01*
X05308D01*
Y03083D01*
X05304D01*
Y03087D01*
X05296D01*
Y03083D01*
X05292D01*
Y03075D01*
X05296D01*
X05396D02*
Y03071D01*
X05404D01*
Y03075D01*
X05408D01*
Y03083D01*
X05404D01*
Y03087D01*
X05396D01*
Y03083D01*
X05392D01*
Y03075D01*
X05396D01*
X05621D02*
Y03071D01*
X05629D01*
Y03075D01*
X05633D01*
Y03083D01*
X05629D01*
Y03087D01*
X05621D01*
Y03083D01*
X05617D01*
Y03075D01*
X05621D01*
X05571D02*
Y03071D01*
X05579D01*
Y03075D01*
X05583D01*
Y03083D01*
X05579D01*
Y03087D01*
X05571D01*
Y03083D01*
X05567D01*
Y03075D01*
X05571D01*
X05521D02*
Y03071D01*
X05529D01*
Y03075D01*
X05533D01*
Y03083D01*
X05529D01*
Y03087D01*
X05521D01*
Y03083D01*
X05517D01*
Y03075D01*
X05521D01*
X05471D02*
Y03071D01*
X05479D01*
Y03075D01*
X05483D01*
Y03083D01*
X05479D01*
Y03087D01*
X05471D01*
Y03083D01*
X05467D01*
Y03075D01*
X05471D01*
X05221Y0425D02*
Y04246D01*
X05229D01*
Y0425D01*
X05233D01*
Y04258D01*
X05229D01*
Y04262D01*
X05221D01*
Y04258D01*
X05217D01*
Y0425D01*
X05221D01*
X05171D02*
Y04246D01*
X05179D01*
Y0425D01*
X05183D01*
Y04258D01*
X05179D01*
Y04262D01*
X05171D01*
Y04258D01*
X05167D01*
Y0425D01*
X05171D01*
X05221Y0405D02*
Y04046D01*
X05229D01*
Y0405D01*
X05233D01*
Y04058D01*
X05229D01*
Y04062D01*
X05221D01*
Y04058D01*
X05217D01*
Y0405D01*
X05221D01*
X05171D02*
Y04046D01*
X05179D01*
Y0405D01*
X05183D01*
Y04058D01*
X05179D01*
Y04062D01*
X05171D01*
Y04058D01*
X05167D01*
Y0405D01*
X05171D01*
X05246Y0445D02*
Y04446D01*
X05254D01*
Y0445D01*
X05258D01*
Y04458D01*
X05254D01*
Y04462D01*
X05246D01*
Y04458D01*
X05242D01*
Y0445D01*
X05246D01*
X05171D02*
Y04446D01*
X05179D01*
Y0445D01*
X05183D01*
Y04458D01*
X05179D01*
Y04462D01*
X05171D01*
Y04458D01*
X05167D01*
Y0445D01*
X05171D01*
X05396Y0295D02*
Y02946D01*
X05404D01*
Y0295D01*
X05408D01*
Y02958D01*
X05404D01*
Y02962D01*
X05396D01*
Y02958D01*
X05392D01*
Y0295D01*
X05396D01*
X05271D02*
Y02946D01*
X05279D01*
Y0295D01*
X05283D01*
Y02958D01*
X05279D01*
Y02962D01*
X05271D01*
Y02958D01*
X05267D01*
Y0295D01*
X05271D01*
X05296Y032D02*
Y03196D01*
X05304D01*
Y032D01*
X05308D01*
Y03208D01*
X05304D01*
Y03212D01*
X05296D01*
Y03208D01*
X05292D01*
Y032D01*
X05296D01*
X05396D02*
Y03196D01*
X05404D01*
Y032D01*
X05408D01*
Y03208D01*
X05404D01*
Y03212D01*
X05396D01*
Y03208D01*
X05392D01*
Y032D01*
X05396D01*
X05521Y02875D02*
Y02871D01*
X05529D01*
Y02875D01*
X05533D01*
Y02883D01*
X05529D01*
Y02887D01*
X05521D01*
Y02883D01*
X05517D01*
Y02875D01*
X05521D01*
X05621D02*
Y02871D01*
X05629D01*
Y02875D01*
X05633D01*
Y02883D01*
X05629D01*
Y02887D01*
X05621D01*
Y02883D01*
X05617D01*
Y02875D01*
X05621D01*
X05446D02*
Y02871D01*
X05454D01*
Y02875D01*
X05458D01*
Y02883D01*
X05454D01*
Y02887D01*
X05446D01*
Y02883D01*
X05442D01*
Y02875D01*
X05446D01*
X05471Y03225D02*
Y03221D01*
X05479D01*
Y03225D01*
X05483D01*
Y03233D01*
X05479D01*
Y03237D01*
X05471D01*
Y03233D01*
X05467D01*
Y03225D01*
X05471D01*
X05521D02*
Y03221D01*
X05529D01*
Y03225D01*
X05533D01*
Y03233D01*
X05529D01*
Y03237D01*
X05521D01*
Y03233D01*
X05517D01*
Y03225D01*
X05521D01*
X05621D02*
Y03221D01*
X05629D01*
Y03225D01*
X05633D01*
Y03233D01*
X05629D01*
Y03237D01*
X05621D01*
Y03233D01*
X05617D01*
Y03225D01*
X05621D01*
X05571Y02875D02*
Y02871D01*
X05579D01*
Y02875D01*
X05583D01*
Y02883D01*
X05579D01*
Y02887D01*
X05571D01*
Y02883D01*
X05567D01*
Y02875D01*
X05571D01*
Y03225D02*
Y03221D01*
X05579D01*
Y03225D01*
X05583D01*
Y03233D01*
X05579D01*
Y03237D01*
X05571D01*
Y03233D01*
X05567D01*
Y03225D01*
X05571D01*
X05771Y0315D02*
Y03146D01*
X05779D01*
Y0315D01*
X05783D01*
Y03158D01*
X05779D01*
Y03162D01*
X05771D01*
Y03158D01*
X05767D01*
Y0315D01*
X05771D01*
X05696D02*
Y03146D01*
X05704D01*
Y0315D01*
X05708D01*
Y03158D01*
X05704D01*
Y03162D01*
X05696D01*
Y03158D01*
X05692D01*
Y0315D01*
X05696D01*
X05821Y03035D02*
Y03031D01*
X05829D01*
Y03035D01*
X05833D01*
Y03043D01*
X05829D01*
Y03047D01*
X05821D01*
Y03043D01*
X05817D01*
Y03035D01*
X05821D01*
X05896Y0315D02*
Y03146D01*
X05904D01*
Y0315D01*
X05908D01*
Y03158D01*
X05904D01*
Y03162D01*
X05896D01*
Y03158D01*
X05892D01*
Y0315D01*
X05896D01*
Y0285D02*
Y02846D01*
X05904D01*
Y0285D01*
X05908D01*
Y02858D01*
X05904D01*
Y02862D01*
X05896D01*
Y02858D01*
X05892D01*
Y0285D01*
X05896D01*
Y0295D02*
Y02946D01*
X05904D01*
Y0295D01*
X05908D01*
Y02958D01*
X05904D01*
Y02962D01*
X05896D01*
Y02958D01*
X05892D01*
Y0295D01*
X05896D01*
X05796D02*
Y02946D01*
X05804D01*
Y0295D01*
X05808D01*
Y02958D01*
X05804D01*
Y02962D01*
X05796D01*
Y02958D01*
X05792D01*
Y0295D01*
X05796D01*
Y0285D02*
Y02846D01*
X05804D01*
Y0285D01*
X05808D01*
Y02858D01*
X05804D01*
Y02862D01*
X05796D01*
Y02858D01*
X05792D01*
Y0285D01*
X05796D01*
X05696D02*
Y02846D01*
X05704D01*
Y0285D01*
X05708D01*
Y02858D01*
X05704D01*
Y02862D01*
X05696D01*
Y02858D01*
X05692D01*
Y0285D01*
X05696D01*
Y0295D02*
Y02946D01*
X05704D01*
Y0295D01*
X05708D01*
Y02958D01*
X05704D01*
Y02962D01*
X05696D01*
Y02958D01*
X05692D01*
Y0295D01*
X05696D01*
Y0305D02*
Y03046D01*
X05704D01*
Y0305D01*
X05708D01*
Y03058D01*
X05704D01*
Y03062D01*
X05696D01*
Y03058D01*
X05692D01*
Y0305D01*
X05696D01*
Y032D02*
Y03196D01*
X05704D01*
Y032D01*
X05708D01*
Y03208D01*
X05704D01*
Y03212D01*
X05696D01*
Y03208D01*
X05692D01*
Y032D01*
X05696D01*
X05711Y03255D02*
Y03251D01*
X05719D01*
Y03255D01*
X05723D01*
Y03263D01*
X05719D01*
Y03267D01*
X05711D01*
Y03263D01*
X05707D01*
Y03255D01*
X05711D01*
X05786Y0326D02*
Y03256D01*
X05794D01*
Y0326D01*
X05798D01*
Y03268D01*
X05794D01*
Y03272D01*
X05786D01*
Y03268D01*
X05782D01*
Y0326D01*
X05786D01*
X05211Y0394D02*
Y03936D01*
X05219D01*
Y0394D01*
X05223D01*
Y03948D01*
X05219D01*
Y03952D01*
X05211D01*
Y03948D01*
X05207D01*
Y0394D01*
X05211D01*
X05346Y0355D02*
Y03546D01*
X05354D01*
Y0355D01*
X05358D01*
Y03558D01*
X05354D01*
Y03562D01*
X05346D01*
Y03558D01*
X05342D01*
Y0355D01*
X05346D01*
X05496Y03675D02*
Y03671D01*
X05504D01*
Y03675D01*
X05508D01*
Y03683D01*
X05504D01*
Y03687D01*
X05496D01*
Y03683D01*
X05492D01*
Y03675D01*
X05496D01*
X05346D02*
Y03671D01*
X05354D01*
Y03675D01*
X05358D01*
Y03683D01*
X05354D01*
Y03687D01*
X05346D01*
Y03683D01*
X05342D01*
Y03675D01*
X05346D01*
X05496Y0355D02*
Y03546D01*
X05504D01*
Y0355D01*
X05508D01*
Y03558D01*
X05504D01*
Y03562D01*
X05496D01*
Y03558D01*
X05492D01*
Y0355D01*
X05496D01*
Y0345D02*
Y03446D01*
X05504D01*
Y0345D01*
X05508D01*
Y03458D01*
X05504D01*
Y03462D01*
X05496D01*
Y03458D01*
X05492D01*
Y0345D01*
X05496D01*
X05296D02*
Y03446D01*
X05304D01*
Y0345D01*
X05308D01*
Y03458D01*
X05304D01*
Y03462D01*
X05296D01*
Y03458D01*
X05292D01*
Y0345D01*
X05296D01*
X05196Y0355D02*
Y03546D01*
X05204D01*
Y0355D01*
X05208D01*
Y03558D01*
X05204D01*
Y03562D01*
X05196D01*
Y03558D01*
X05192D01*
Y0355D01*
X05196D01*
Y03675D02*
Y03671D01*
X05204D01*
Y03675D01*
X05208D01*
Y03683D01*
X05204D01*
Y03687D01*
X05196D01*
Y03683D01*
X05192D01*
Y03675D01*
X05196D01*
X05496Y03925D02*
Y03921D01*
X05504D01*
Y03925D01*
X05508D01*
Y03933D01*
X05504D01*
Y03937D01*
X05496D01*
Y03933D01*
X05492D01*
Y03925D01*
X05496D01*
X05346Y03775D02*
Y03771D01*
X05354D01*
Y03775D01*
X05358D01*
Y03783D01*
X05354D01*
Y03787D01*
X05346D01*
Y03783D01*
X05342D01*
Y03775D01*
X05346D01*
X05496D02*
Y03771D01*
X05504D01*
Y03775D01*
X05508D01*
Y03783D01*
X05504D01*
Y03787D01*
X05496D01*
Y03783D01*
X05492D01*
Y03775D01*
X05496D01*
X05196D02*
Y03771D01*
X05204D01*
Y03775D01*
X05208D01*
Y03783D01*
X05204D01*
Y03787D01*
X05196D01*
Y03783D01*
X05192D01*
Y03775D01*
X05196D01*
X05371Y03925D02*
Y03921D01*
X05379D01*
Y03925D01*
X05383D01*
Y03933D01*
X05379D01*
Y03937D01*
X05371D01*
Y03933D01*
X05367D01*
Y03925D01*
X05371D01*
X05646D02*
Y03921D01*
X05654D01*
Y03925D01*
X05658D01*
Y03933D01*
X05654D01*
Y03937D01*
X05646D01*
Y03933D01*
X05642D01*
Y03925D01*
X05646D01*
X05296Y042D02*
Y04196D01*
X05304D01*
Y042D01*
X05308D01*
Y04208D01*
X05304D01*
Y04212D01*
X05296D01*
Y04208D01*
X05292D01*
Y042D01*
X05296D01*
Y043D02*
Y04296D01*
X05304D01*
Y043D01*
X05308D01*
Y04308D01*
X05304D01*
Y04312D01*
X05296D01*
Y04308D01*
X05292D01*
Y043D01*
X05296D01*
Y044D02*
Y04396D01*
X05304D01*
Y044D01*
X05308D01*
Y04408D01*
X05304D01*
Y04412D01*
X05296D01*
Y04408D01*
X05292D01*
Y044D01*
X05296D01*
X05421Y043D02*
Y04296D01*
X05429D01*
Y043D01*
X05433D01*
Y04308D01*
X05429D01*
Y04312D01*
X05421D01*
Y04308D01*
X05417D01*
Y043D01*
X05421D01*
Y044D02*
Y04396D01*
X05429D01*
Y044D01*
X05433D01*
Y04408D01*
X05429D01*
Y04412D01*
X05421D01*
Y04408D01*
X05417D01*
Y044D01*
X05421D01*
X05446Y045D02*
Y04496D01*
X05454D01*
Y045D01*
X05458D01*
Y04508D01*
X05454D01*
Y04512D01*
X05446D01*
Y04508D01*
X05442D01*
Y045D01*
X05446D01*
X05546D02*
Y04496D01*
X05554D01*
Y045D01*
X05558D01*
Y04508D01*
X05554D01*
Y04512D01*
X05546D01*
Y04508D01*
X05542D01*
Y045D01*
X05546D01*
X05396Y0415D02*
Y04146D01*
X05404D01*
Y0415D01*
X05408D01*
Y04158D01*
X05404D01*
Y04162D01*
X05396D01*
Y04158D01*
X05392D01*
Y0415D01*
X05396D01*
X05296Y04075D02*
Y04071D01*
X05304D01*
Y04075D01*
X05308D01*
Y04083D01*
X05304D01*
Y04087D01*
X05296D01*
Y04083D01*
X05292D01*
Y04075D01*
X05296D01*
X05471Y04225D02*
Y04221D01*
X05479D01*
Y04225D01*
X05483D01*
Y04233D01*
X05479D01*
Y04237D01*
X05471D01*
Y04233D01*
X05467D01*
Y04225D01*
X05471D01*
X05546Y043D02*
Y04296D01*
X05554D01*
Y043D01*
X05558D01*
Y04308D01*
X05554D01*
Y04312D01*
X05546D01*
Y04308D01*
X05542D01*
Y043D01*
X05546D01*
Y044D02*
Y04396D01*
X05554D01*
Y044D01*
X05558D01*
Y04408D01*
X05554D01*
Y04412D01*
X05546D01*
Y04408D01*
X05542D01*
Y044D01*
X05546D01*
X05671Y043D02*
Y04296D01*
X05679D01*
Y043D01*
X05683D01*
Y04308D01*
X05679D01*
Y04312D01*
X05671D01*
Y04308D01*
X05667D01*
Y043D01*
X05671D01*
Y044D02*
Y04396D01*
X05679D01*
Y044D01*
X05683D01*
Y04408D01*
X05679D01*
Y04412D01*
X05671D01*
Y04408D01*
X05667D01*
Y044D01*
X05671D01*
X05696Y04075D02*
Y04071D01*
X05704D01*
Y04075D01*
X05708D01*
Y04083D01*
X05704D01*
Y04087D01*
X05696D01*
Y04083D01*
X05692D01*
Y04075D01*
X05696D01*
X05546D02*
Y04071D01*
X05554D01*
Y04075D01*
X05558D01*
Y04083D01*
X05554D01*
Y04087D01*
X05546D01*
Y04083D01*
X05542D01*
Y04075D01*
X05546D01*
X05846Y0415D02*
Y04146D01*
X05854D01*
Y0415D01*
X05858D01*
Y04158D01*
X05854D01*
Y04162D01*
X05846D01*
Y04158D01*
X05842D01*
Y0415D01*
X05846D01*
X05646D02*
Y04146D01*
X05654D01*
Y0415D01*
X05658D01*
Y04158D01*
X05654D01*
Y04162D01*
X05646D01*
Y04158D01*
X05642D01*
Y0415D01*
X05646D01*
X05746D02*
Y04146D01*
X05754D01*
Y0415D01*
X05758D01*
Y04158D01*
X05754D01*
Y04162D01*
X05746D01*
Y04158D01*
X05742D01*
Y0415D01*
X05746D01*
Y0425D02*
Y04246D01*
X05754D01*
Y0425D01*
X05758D01*
Y04258D01*
X05754D01*
Y04262D01*
X05746D01*
Y04258D01*
X05742D01*
Y0425D01*
X05746D01*
Y0435D02*
Y04346D01*
X05754D01*
Y0435D01*
X05758D01*
Y04358D01*
X05754D01*
Y04362D01*
X05746D01*
Y04358D01*
X05742D01*
Y0435D01*
X05746D01*
Y0445D02*
Y04446D01*
X05754D01*
Y0445D01*
X05758D01*
Y04458D01*
X05754D01*
Y04462D01*
X05746D01*
Y04458D01*
X05742D01*
Y0445D01*
X05746D01*
X05846D02*
Y04446D01*
X05854D01*
Y0445D01*
X05858D01*
Y04458D01*
X05854D01*
Y04462D01*
X05846D01*
Y04458D01*
X05842D01*
Y0445D01*
X05846D01*
Y0435D02*
Y04346D01*
X05854D01*
Y0435D01*
X05858D01*
Y04358D01*
X05854D01*
Y04362D01*
X05846D01*
Y04358D01*
X05842D01*
Y0435D01*
X05846D01*
Y0425D02*
Y04246D01*
X05854D01*
Y0425D01*
X05858D01*
Y04258D01*
X05854D01*
Y04262D01*
X05846D01*
Y04258D01*
X05842D01*
Y0425D01*
X05846D01*
X05946Y0435D02*
Y04346D01*
X05954D01*
Y0435D01*
X05958D01*
Y04358D01*
X05954D01*
Y04362D01*
X05946D01*
Y04358D01*
X05942D01*
Y0435D01*
X05946D01*
Y0425D02*
Y04246D01*
X05954D01*
Y0425D01*
X05958D01*
Y04258D01*
X05954D01*
Y04262D01*
X05946D01*
Y04258D01*
X05942D01*
Y0425D01*
X05946D01*
Y0445D02*
Y04446D01*
X05954D01*
Y0445D01*
X05958D01*
Y04458D01*
X05954D01*
Y04462D01*
X05946D01*
Y04458D01*
X05942D01*
Y0445D01*
X05946D01*
X05646Y0345D02*
Y03446D01*
X05654D01*
Y0345D01*
X05658D01*
Y03458D01*
X05654D01*
Y03462D01*
X05646D01*
Y03458D01*
X05642D01*
Y0345D01*
X05646D01*
Y0355D02*
Y03546D01*
X05654D01*
Y0355D01*
X05658D01*
Y03558D01*
X05654D01*
Y03562D01*
X05646D01*
Y03558D01*
X05642D01*
Y0355D01*
X05646D01*
Y0365D02*
Y03646D01*
X05654D01*
Y0365D01*
X05658D01*
Y03658D01*
X05654D01*
Y03662D01*
X05646D01*
Y03658D01*
X05642D01*
Y0365D01*
X05646D01*
Y0375D02*
Y03746D01*
X05654D01*
Y0375D01*
X05658D01*
Y03758D01*
X05654D01*
Y03762D01*
X05646D01*
Y03758D01*
X05642D01*
Y0375D01*
X05646D01*
X05746Y0385D02*
Y03846D01*
X05754D01*
Y0385D01*
X05758D01*
Y03858D01*
X05754D01*
Y03862D01*
X05746D01*
Y03858D01*
X05742D01*
Y0385D01*
X05746D01*
Y0375D02*
Y03746D01*
X05754D01*
Y0375D01*
X05758D01*
Y03758D01*
X05754D01*
Y03762D01*
X05746D01*
Y03758D01*
X05742D01*
Y0375D01*
X05746D01*
Y0365D02*
Y03646D01*
X05754D01*
Y0365D01*
X05758D01*
Y03658D01*
X05754D01*
Y03662D01*
X05746D01*
Y03658D01*
X05742D01*
Y0365D01*
X05746D01*
Y0355D02*
Y03546D01*
X05754D01*
Y0355D01*
X05758D01*
Y03558D01*
X05754D01*
Y03562D01*
X05746D01*
Y03558D01*
X05742D01*
Y0355D01*
X05746D01*
Y0345D02*
Y03446D01*
X05754D01*
Y0345D01*
X05758D01*
Y03458D01*
X05754D01*
Y03462D01*
X05746D01*
Y03458D01*
X05742D01*
Y0345D01*
X05746D01*
X05846Y0395D02*
Y03946D01*
X05854D01*
Y0395D01*
X05858D01*
Y03958D01*
X05854D01*
Y03962D01*
X05846D01*
Y03958D01*
X05842D01*
Y0395D01*
X05846D01*
Y0385D02*
Y03846D01*
X05854D01*
Y0385D01*
X05858D01*
Y03858D01*
X05854D01*
Y03862D01*
X05846D01*
Y03858D01*
X05842D01*
Y0385D01*
X05846D01*
Y0375D02*
Y03746D01*
X05854D01*
Y0375D01*
X05858D01*
Y03758D01*
X05854D01*
Y03762D01*
X05846D01*
Y03758D01*
X05842D01*
Y0375D01*
X05846D01*
Y0365D02*
Y03646D01*
X05854D01*
Y0365D01*
X05858D01*
Y03658D01*
X05854D01*
Y03662D01*
X05846D01*
Y03658D01*
X05842D01*
Y0365D01*
X05846D01*
Y0355D02*
Y03546D01*
X05854D01*
Y0355D01*
X05858D01*
Y03558D01*
X05854D01*
Y03562D01*
X05846D01*
Y03558D01*
X05842D01*
Y0355D01*
X05846D01*
Y0345D02*
Y03446D01*
X05854D01*
Y0345D01*
X05858D01*
Y03458D01*
X05854D01*
Y03462D01*
X05846D01*
Y03458D01*
X05842D01*
Y0345D01*
X05846D01*
X05946Y02625D02*
Y02621D01*
X05954D01*
Y02625D01*
X05958D01*
Y02633D01*
X05954D01*
Y02637D01*
X05946D01*
Y02633D01*
X05942D01*
Y02625D01*
X05946D01*
Y02725D02*
Y02721D01*
X05954D01*
Y02725D01*
X05958D01*
Y02733D01*
X05954D01*
Y02737D01*
X05946D01*
Y02733D01*
X05942D01*
Y02725D01*
X05946D01*
Y0285D02*
Y02846D01*
X05954D01*
Y0285D01*
X05958D01*
Y02858D01*
X05954D01*
Y02862D01*
X05946D01*
Y02858D01*
X05942D01*
Y0285D01*
X05946D01*
Y029D02*
Y02896D01*
X05954D01*
Y029D01*
X05958D01*
Y02908D01*
X05954D01*
Y02912D01*
X05946D01*
Y02908D01*
X05942D01*
Y029D01*
X05946D01*
Y0295D02*
Y02946D01*
X05954D01*
Y0295D01*
X05958D01*
Y02958D01*
X05954D01*
Y02962D01*
X05946D01*
Y02958D01*
X05942D01*
Y0295D01*
X05946D01*
Y03D02*
Y02996D01*
X05954D01*
Y03D01*
X05958D01*
Y03008D01*
X05954D01*
Y03012D01*
X05946D01*
Y03008D01*
X05942D01*
Y03D01*
X05946D01*
Y0305D02*
Y03046D01*
X05954D01*
Y0305D01*
X05958D01*
Y03058D01*
X05954D01*
Y03062D01*
X05946D01*
Y03058D01*
X05942D01*
Y0305D01*
X05946D01*
Y031D02*
Y03096D01*
X05954D01*
Y031D01*
X05958D01*
Y03108D01*
X05954D01*
Y03112D01*
X05946D01*
Y03108D01*
X05942D01*
Y031D01*
X05946D01*
Y0315D02*
Y03146D01*
X05954D01*
Y0315D01*
X05958D01*
Y03158D01*
X05954D01*
Y03162D01*
X05946D01*
Y03158D01*
X05942D01*
Y0315D01*
X05946D01*
Y032D02*
Y03196D01*
X05954D01*
Y032D01*
X05958D01*
Y03208D01*
X05954D01*
Y03212D01*
X05946D01*
Y03208D01*
X05942D01*
Y032D01*
X05946D01*
Y0325D02*
Y03246D01*
X05954D01*
Y0325D01*
X05958D01*
Y03258D01*
X05954D01*
Y03262D01*
X05946D01*
Y03258D01*
X05942D01*
Y0325D01*
X05946D01*
Y0345D02*
Y03446D01*
X05954D01*
Y0345D01*
X05958D01*
Y03458D01*
X05954D01*
Y03462D01*
X05946D01*
Y03458D01*
X05942D01*
Y0345D01*
X05946D01*
Y035D02*
Y03496D01*
X05954D01*
Y035D01*
X05958D01*
Y03508D01*
X05954D01*
Y03512D01*
X05946D01*
Y03508D01*
X05942D01*
Y035D01*
X05946D01*
Y0355D02*
Y03546D01*
X05954D01*
Y0355D01*
X05958D01*
Y03558D01*
X05954D01*
Y03562D01*
X05946D01*
Y03558D01*
X05942D01*
Y0355D01*
X05946D01*
Y036D02*
Y03596D01*
X05954D01*
Y036D01*
X05958D01*
Y03608D01*
X05954D01*
Y03612D01*
X05946D01*
Y03608D01*
X05942D01*
Y036D01*
X05946D01*
Y0365D02*
Y03646D01*
X05954D01*
Y0365D01*
X05958D01*
Y03658D01*
X05954D01*
Y03662D01*
X05946D01*
Y03658D01*
X05942D01*
Y0365D01*
X05946D01*
Y037D02*
Y03696D01*
X05954D01*
Y037D01*
X05958D01*
Y03708D01*
X05954D01*
Y03712D01*
X05946D01*
Y03708D01*
X05942D01*
Y037D01*
X05946D01*
Y0375D02*
Y03746D01*
X05954D01*
Y0375D01*
X05958D01*
Y03758D01*
X05954D01*
Y03762D01*
X05946D01*
Y03758D01*
X05942D01*
Y0375D01*
X05946D01*
Y038D02*
Y03796D01*
X05954D01*
Y038D01*
X05958D01*
Y03808D01*
X05954D01*
Y03812D01*
X05946D01*
Y03808D01*
X05942D01*
Y038D01*
X05946D01*
Y039D02*
Y03896D01*
X05954D01*
Y039D01*
X05958D01*
Y03908D01*
X05954D01*
Y03912D01*
X05946D01*
Y03908D01*
X05942D01*
Y039D01*
X05946D01*
Y0385D02*
Y03846D01*
X05954D01*
Y0385D01*
X05958D01*
Y03858D01*
X05954D01*
Y03862D01*
X05946D01*
Y03858D01*
X05942D01*
Y0385D01*
X05946D01*
Y046D02*
Y04596D01*
X05954D01*
Y046D01*
X05958D01*
Y04608D01*
X05954D01*
Y04612D01*
X05946D01*
Y04608D01*
X05942D01*
Y046D01*
X05946D01*
Y04675D02*
Y04671D01*
X05954D01*
Y04675D01*
X05958D01*
Y04683D01*
X05954D01*
Y04687D01*
X05946D01*
Y04683D01*
X05942D01*
Y04675D01*
X05946D01*
X05846D02*
Y04671D01*
X05854D01*
Y04675D01*
X05858D01*
Y04683D01*
X05854D01*
Y04687D01*
X05846D01*
Y04683D01*
X05842D01*
Y04675D01*
X05846D01*
X05746D02*
Y04671D01*
X05754D01*
Y04675D01*
X05758D01*
Y04683D01*
X05754D01*
Y04687D01*
X05746D01*
Y04683D01*
X05742D01*
Y04675D01*
X05746D01*
X05646D02*
Y04671D01*
X05654D01*
Y04675D01*
X05658D01*
Y04683D01*
X05654D01*
Y04687D01*
X05646D01*
Y04683D01*
X05642D01*
Y04675D01*
X05646D01*
X05546D02*
Y04671D01*
X05554D01*
Y04675D01*
X05558D01*
Y04683D01*
X05554D01*
Y04687D01*
X05546D01*
Y04683D01*
X05542D01*
Y04675D01*
X05546D01*
X05446D02*
Y04671D01*
X05454D01*
Y04675D01*
X05458D01*
Y04683D01*
X05454D01*
Y04687D01*
X05446D01*
Y04683D01*
X05442D01*
Y04675D01*
X05446D01*
X05346D02*
Y04671D01*
X05354D01*
Y04675D01*
X05358D01*
Y04683D01*
X05354D01*
Y04687D01*
X05346D01*
Y04683D01*
X05342D01*
Y04675D01*
X05346D01*
X05246D02*
Y04671D01*
X05254D01*
Y04675D01*
X05258D01*
Y04683D01*
X05254D01*
Y04687D01*
X05246D01*
Y04683D01*
X05242D01*
Y04675D01*
X05246D01*
X05146D02*
Y04671D01*
X05154D01*
Y04675D01*
X05158D01*
Y04683D01*
X05154D01*
Y04687D01*
X05146D01*
Y04683D01*
X05142D01*
Y04675D01*
X05146D01*
X05046D02*
Y04671D01*
X05054D01*
Y04675D01*
X05058D01*
Y04683D01*
X05054D01*
Y04687D01*
X05046D01*
Y04683D01*
X05042D01*
Y04675D01*
X05046D01*
X04994Y03585D02*
Y03581D01*
X05002D01*
Y03585D01*
X05006D01*
Y03593D01*
X05002D01*
Y03597D01*
X04994D01*
Y03593D01*
X0499D01*
Y03585D01*
X04994D01*
X04764Y03384D02*
Y0338D01*
X04772D01*
Y03384D01*
X04776D01*
Y03392D01*
X04772D01*
Y03396D01*
X04764D01*
Y03392D01*
X0476D01*
Y03384D01*
X04764D01*
X05037Y038D02*
Y03796D01*
X05045D01*
Y038D01*
X05049D01*
Y03808D01*
X05045D01*
Y03812D01*
X05037D01*
Y03808D01*
X05033D01*
Y038D01*
X05037D01*
X05923Y04127D02*
X05927D01*
X05931Y04131D01*
X05935Y04127D01*
X05939D01*
Y04131D01*
X05935Y04135D01*
X05939Y04139D01*
Y04143D01*
X05935D01*
X05931Y04139D01*
X05927Y04143D01*
X05923D01*
Y04139D01*
X05927Y04135D01*
X05923Y04131D01*
Y04127D01*
X03742Y03746D02*
X03746D01*
X0375Y0375D01*
X03754Y03746D01*
X03758D01*
Y0375D01*
X03754Y03754D01*
X03758Y03758D01*
Y03762D01*
X03754D01*
X0375Y03758D01*
X03746Y03762D01*
X03742D01*
Y03758D01*
X03746Y03754D01*
X03742Y0375D01*
Y03746D01*
X05196Y033D02*
Y03296D01*
X05204D01*
Y033D01*
X05208D01*
Y03308D01*
X05204D01*
Y03312D01*
X05196D01*
Y03308D01*
X05192D01*
Y033D01*
X05196D01*
X05416Y0325D02*
Y03246D01*
X05424D01*
Y0325D01*
X05428D01*
Y03258D01*
X05424D01*
Y03262D01*
X05416D01*
Y03258D01*
X05412D01*
Y0325D01*
X05416D01*
Y03285D02*
Y03281D01*
X05424D01*
Y03285D01*
X05428D01*
Y03293D01*
X05424D01*
Y03297D01*
X05416D01*
Y03293D01*
X05412D01*
Y03285D01*
X05416D01*
X05676Y033D02*
Y03296D01*
X05684D01*
Y033D01*
X05688D01*
Y03308D01*
X05684D01*
Y03312D01*
X05676D01*
Y03308D01*
X05672D01*
Y033D01*
X05676D01*
X05721D02*
Y03296D01*
X05729D01*
Y033D01*
X05733D01*
Y03308D01*
X05729D01*
Y03312D01*
X05721D01*
Y03308D01*
X05717D01*
Y033D01*
X05721D01*
X05081Y03235D02*
Y03231D01*
X05089D01*
Y03235D01*
X05093D01*
Y03243D01*
X05089D01*
Y03247D01*
X05081D01*
Y03243D01*
X05077D01*
Y03235D01*
X05081D01*
X05046D02*
Y03231D01*
X05054D01*
Y03235D01*
X05058D01*
Y03243D01*
X05054D01*
Y03247D01*
X05046D01*
Y03243D01*
X05042D01*
Y03235D01*
X05046D01*
Y033D02*
Y03296D01*
X05054D01*
Y033D01*
X05058D01*
Y03308D01*
X05054D01*
Y03312D01*
X05046D01*
Y03308D01*
X05042D01*
Y033D01*
X05046D01*
X05081D02*
Y03296D01*
X05089D01*
Y033D01*
X05093D01*
Y03308D01*
X05089D01*
Y03312D01*
X05081D01*
Y03308D01*
X05077D01*
Y033D01*
X05081D01*
X05076Y03902D02*
Y03898D01*
X05084D01*
Y03902D01*
X05088D01*
Y0391D01*
X05084D01*
Y03914D01*
X05076D01*
Y0391D01*
X05072D01*
Y03902D01*
X05076D01*
X05091Y0351D02*
Y03506D01*
X05099D01*
Y0351D01*
X05103D01*
Y03518D01*
X05099D01*
Y03522D01*
X05091D01*
Y03518D01*
X05087D01*
Y0351D01*
X05091D01*
X03866Y03495D02*
Y03491D01*
X03874D01*
Y03495D01*
X03878D01*
Y03503D01*
X03874D01*
Y03507D01*
X03866D01*
Y03503D01*
X03862D01*
Y03495D01*
X03866D01*
X05097Y03401D02*
Y03397D01*
X05105D01*
Y03401D01*
X05109D01*
Y03409D01*
X05105D01*
Y03413D01*
X05097D01*
Y03409D01*
X05093D01*
Y03401D01*
X05097D01*
X05096Y0345D02*
Y03446D01*
X05104D01*
Y0345D01*
X05108D01*
Y03458D01*
X05104D01*
Y03462D01*
X05096D01*
Y03458D01*
X05092D01*
Y0345D01*
X05096D01*
X03866Y0363D02*
Y03626D01*
X03874D01*
Y0363D01*
X03878D01*
Y03638D01*
X03874D01*
Y03642D01*
X03866D01*
Y03638D01*
X03862D01*
Y0363D01*
X03866D01*
X05346Y033D02*
Y03296D01*
X05354D01*
Y033D01*
X05358D01*
Y03308D01*
X05354D01*
Y03312D01*
X05346D01*
Y03308D01*
X05342D01*
Y033D01*
X05346D01*
X04926Y03585D02*
Y03581D01*
X04934D01*
Y03585D01*
X04938D01*
Y03593D01*
X04934D01*
Y03597D01*
X04926D01*
Y03593D01*
X04922D01*
Y03585D01*
X04926D01*
X05076Y0362D02*
Y03616D01*
X05084D01*
Y0362D01*
X05088D01*
Y03628D01*
X05084D01*
Y03632D01*
X05076D01*
Y03628D01*
X05072D01*
Y0362D01*
X05076D01*
X05041D02*
Y03616D01*
X05049D01*
Y0362D01*
X05053D01*
Y03628D01*
X05049D01*
Y03632D01*
X05041D01*
Y03628D01*
X05037D01*
Y0362D01*
X05041D01*
X05296Y033D02*
Y03296D01*
X05304D01*
Y033D01*
X05308D01*
Y03308D01*
X05304D01*
Y03312D01*
X05296D01*
Y03308D01*
X05292D01*
Y033D01*
X05296D01*
X04741Y03705D02*
Y03701D01*
X04749D01*
Y03705D01*
X04753D01*
Y03713D01*
X04749D01*
Y03717D01*
X04741D01*
Y03713D01*
X04737D01*
Y03705D01*
X04741D01*
X04716Y0368D02*
Y03676D01*
X04724D01*
Y0368D01*
X04728D01*
Y03688D01*
X04724D01*
Y03692D01*
X04716D01*
Y03688D01*
X04712D01*
Y0368D01*
X04716D01*
X05821Y033D02*
Y03296D01*
X05829D01*
Y033D01*
X05833D01*
Y03308D01*
X05829D01*
Y03312D01*
X05821D01*
Y03308D01*
X05817D01*
Y033D01*
X05821D01*
X05781D02*
Y03296D01*
X05789D01*
Y033D01*
X05793D01*
Y03308D01*
X05789D01*
Y03312D01*
X05781D01*
Y03308D01*
X05777D01*
Y033D01*
X05781D01*
X04958Y03729D02*
X04962D01*
X04966Y03733D01*
X0497Y03729D01*
X04974D01*
Y03733D01*
X0497Y03737D01*
X04974Y03741D01*
Y03745D01*
X0497D01*
X04966Y03741D01*
X04962Y03745D01*
X04958D01*
Y03741D01*
X04962Y03737D01*
X04958Y03733D01*
Y03729D01*
X04998Y03633D02*
Y03629D01*
X05006D01*
Y03633D01*
X0501D01*
Y03641D01*
X05006D01*
Y03645D01*
X04998D01*
Y03641D01*
X04994D01*
Y03633D01*
X04998D01*
X05029Y0377D02*
Y03766D01*
X05037D01*
Y0377D01*
X05041D01*
Y03778D01*
X05037D01*
Y03782D01*
X05029D01*
Y03778D01*
X05025D01*
Y0377D01*
X05029D01*
D69*
X03008Y02754D02*
G03*
X03008Y02754I-00008J0D01*
G01*
X06183D02*
G03*
X06183Y02754I-00008J0D01*
G01*
Y04579D02*
G03*
X06183Y04579I-00008J0D01*
G01*
X03808D02*
G03*
X03808Y04579I-00008J0D01*
G01*
M02*
